<?xml version="1.0" standalone="no"?>
<!DOCTYPE svg PUBLIC "-//W3C//DTD SVG 20010904//EN"
 "http://www.w3.org/TR/2001/REC-SVG-20010904/DTD/svg10.dtd">
<svg version="1.0" xmlns="http://www.w3.org/2000/svg"
 width="3125.000000pt" height="3125.000000pt" viewBox="0 0 3125.000000 3125.000000"
 preserveAspectRatio="xMidYMid meet">

<g transform="translate(0.000000,3125.000000) scale(0.100000,-0.100000)"
fill="#000000" stroke="none">
<path d="M4082 30900 l-202 -351 62 -107 c141 -245 339 -587 603 -1045 l280
-486 950 -1 950 0 473 820 473 820 -202 350 c-177 307 -205 350 -226 350 -13
0 -22 -3 -20 -7 82 -141 388 -674 392 -684 3 -8 -142 -268 -321 -579 -180
-311 -386 -668 -459 -795 l-132 -230 -927 0 -927 0 -136 235 c-74 129 -204
354 -288 500 -311 540 -419 727 -457 792 l-40 68 198 342 c108 189 199 346
201 351 2 4 -6 7 -19 7 -20 0 -51 -49 -226 -350z"/>
<path d="M10433 31238 c3 -7 111 -195 239 -418 l235 -405 704 0 704 0 237 410
c130 226 237 414 237 418 1 5 -9 7 -21 5 -18 -2 -69 -85 -251 -400 l-230 -398
-676 0 -677 0 -230 400 c-199 346 -232 399 -253 400 -15 0 -21 -5 -18 -12z"/>
<path d="M13395 31005 c-77 -135 -139 -249 -138 -253 1 -4 110 -195 243 -424
l242 -418 -17 -45 c-35 -91 0 -194 80 -232 l34 -16 -26 -21 c-21 -16 -46 -21
-116 -26 -80 -4 -91 -8 -108 -30 -10 -14 -23 -30 -28 -36 -5 -6 -37 -16 -72
-23 -119 -23 -153 -32 -163 -45 -6 -7 -58 -50 -116 -96 -58 -46 -107 -86 -110
-90 -3 -3 -26 -22 -51 -43 -43 -35 -69 -46 -69 -30 0 8 40 68 80 123 44 58 71
108 63 113 -5 3 -31 -15 -58 -39 -172 -154 -258 -237 -308 -299 -31 -38 -69
-83 -83 -100 -46 -54 -79 -118 -80 -160 -1 -22 -7 -77 -15 -123 -11 -71 -17
-86 -40 -102 -26 -19 -27 -19 -44 0 -14 15 -16 31 -13 70 3 28 1 53 -3 56 -5
3 -9 -6 -9 -20 0 -16 -6 -26 -14 -26 -32 0 -46 -133 -21 -200 29 -80 30 -77
-11 -90 -33 -11 -39 -11 -48 3 -9 15 -13 14 -36 -8 -19 -18 -88 -43 -260 -94
-277 -82 -596 -190 -913 -308 -126 -46 -230 -83 -231 -81 -2 2 116 209 262
460 l264 458 -477 827 c-263 456 -485 836 -493 846 -13 15 -37 17 -209 17
-107 0 -193 -4 -193 -9 0 -5 11 -29 25 -52 14 -24 25 -52 25 -61 0 -16 13 -18
139 -18 l138 0 448 -775 447 -775 -70 -123 c-39 -67 -170 -293 -290 -502
l-220 -380 -233 -102 c-129 -57 -389 -180 -577 -273 -189 -94 -346 -170 -348
-170 -2 0 -4 110 -4 245 0 267 -3 287 -56 337 -44 41 -75 48 -210 48 l-124 0
0 -80 0 -80 94 0 c52 0 101 -3 110 -6 14 -6 16 -85 16 -795 0 -741 -1 -789
-17 -797 -11 -5 -521 -6 -1198 -3 l-1180 6 -3 789 c-2 625 0 791 10 798 7 4
57 8 111 8 l97 0 0 81 0 80 -140 -2 -141 -2 -39 69 c-22 38 -44 75 -48 83 -4
7 -11 13 -15 12 -4 0 -321 -1 -705 -1 l-698 0 -351 -606 -350 -606 61 -108
c34 -59 191 -332 351 -608 l290 -502 705 0 705 0 88 155 88 155 255 0 c140 0
254 -3 254 -7 -1 -5 -24 -26 -53 -48 -108 -83 -429 -355 -607 -514 -243 -217
-811 -785 -1031 -1031 -284 -318 -508 -589 -754 -915 -141 -188 -148 -195
-118 -145 114 193 683 1183 683 1188 0 4 -218 383 -483 842 l-483 835 -976 3
-976 2 -486 -841 -486 -841 255 -442 255 -441 -120 -3 -119 -3 -112 -194 c-62
-108 -113 -194 -115 -193 -2 3 -507 876 -653 1130 l-74 128 -360 2 -361 3 -76
132 c-68 121 -77 132 -104 133 -35 0 -36 2 54 -151 l69 -119 -149 0 -150 0 0
-25 0 -25 165 -2 165 -3 -165 -287 c-159 -273 -166 -289 -163 -334 l3 -47 194
336 194 337 332 0 333 0 30 -52 c16 -29 179 -311 361 -627 183 -316 330 -577
329 -580 -2 -4 -36 -64 -76 -133 l-73 -127 96 -166 c55 -95 95 -174 92 -183
-4 -13 -632 -1106 -741 -1289 l-26 -43 -525 0 c-518 0 -525 0 -525 -20 0 -20
7 -20 539 -20 l538 0 384 665 c211 366 386 665 389 665 3 0 46 -70 95 -155
l89 -155 402 0 402 0 173 300 174 300 717 0 c395 0 718 -2 718 -4 0 -2 -60
-98 -133 -212 -376 -588 -689 -1172 -978 -1824 -38 -85 -69 -157 -69 -160 0
-3 131 -5 292 -4 l292 3 101 213 c463 975 957 1771 1613 2598 474 598 1148
1294 1741 1800 l65 55 -132 5 c-86 3 -135 9 -144 18 -17 18 -12 88 10 125 10
18 33 42 52 54 32 22 42 23 240 23 l207 0 6 213 c3 116 9 220 12 229 6 15 26
17 156 20 82 2 154 2 159 0 6 -2 10 -50 10 -113 0 -60 2 -109 5 -109 3 0 39
25 81 56 41 31 76 55 78 53 2 -2 7 -52 11 -110 6 -91 5 -108 -10 -122 -9 -9
-12 -17 -7 -17 27 0 34 36 39 191 5 117 10 162 19 166 7 2 259 8 561 11 518 7
550 8 580 26 39 24 70 64 78 102 6 27 6 27 -12 -5 -10 -19 -23 -36 -30 -38 -6
-2 0 18 15 46 15 27 30 47 34 45 5 -3 8 116 8 264 l0 270 103 57 c377 211 956
486 1382 657 371 148 971 359 1067 374 45 8 46 1 13 -48 -21 -32 -25 -48 -25
-115 1 -81 23 -264 35 -284 7 -10 24 -76 47 -184 6 -27 19 -76 29 -108 11 -31
19 -68 19 -81 0 -13 6 -39 14 -58 8 -18 18 -63 22 -98 4 -36 11 -76 16 -90 5
-14 16 -61 23 -105 33 -192 38 -217 74 -340 11 -38 18 -72 16 -76 -3 -3 -71
-28 -152 -54 -81 -26 -184 -60 -228 -75 -242 -86 -371 -134 -379 -141 -6 -5
-16 -9 -24 -9 -8 0 -28 -7 -45 -15 -18 -8 -93 -39 -167 -69 -74 -29 -160 -65
-190 -79 -52 -24 -104 -48 -265 -120 -153 -70 -603 -301 -687 -354 -21 -12
-40 -23 -43 -23 -9 0 -333 -193 -460 -273 -165 -104 -375 -245 -510 -341 -66
-47 -128 -91 -139 -98 -30 -21 -280 -211 -286 -218 -3 -3 -36 -30 -75 -60
-270 -210 -633 -535 -930 -834 -274 -276 -369 -380 -649 -706 -42 -49 -143
-175 -239 -299 -53 -69 -106 -137 -117 -151 -11 -14 -53 -70 -92 -125 -40 -55
-88 -121 -105 -145 -40 -55 -220 -324 -295 -440 -47 -72 -82 -129 -151 -245
-7 -11 -24 -39 -39 -63 -16 -24 -28 -46 -28 -49 0 -3 -22 -42 -50 -88 -27 -46
-50 -87 -50 -93 0 -6 -3 -12 -7 -14 -5 -1 -18 -21 -29 -43 -158 -297 -344
-672 -344 -694 0 -6 -4 -11 -10 -11 -5 0 -10 -5 -10 -11 0 -5 -9 -31 -21 -57
-11 -26 -27 -63 -35 -82 -8 -19 -19 -42 -23 -50 -5 -8 -28 -65 -52 -125 -24
-61 -47 -111 -51 -113 -4 -2 -8 -11 -8 -20 -1 -9 -9 -35 -20 -57 -11 -22 -19
-48 -20 -57 0 -10 -4 -18 -10 -18 -5 0 -10 -7 -10 -16 0 -9 -6 -30 -14 -47
-20 -45 -86 -232 -86 -243 0 -5 -6 -21 -14 -36 -8 -15 -17 -42 -21 -60 -4 -18
-11 -37 -15 -43 -4 -5 -11 -26 -15 -45 -4 -19 -11 -39 -15 -45 -4 -5 -11 -26
-15 -45 -4 -19 -11 -39 -15 -45 -4 -5 -11 -26 -15 -45 -4 -19 -11 -39 -15 -45
-5 -5 -14 -39 -21 -75 -7 -36 -16 -67 -20 -70 -4 -3 -10 -26 -14 -52 l-7 -48
925 0 c728 0 927 3 934 13 6 6 19 39 31 72 37 108 76 210 82 215 4 3 10 17 14
33 3 15 18 52 31 82 14 29 25 56 25 60 0 3 14 35 30 70 17 35 30 67 30 69 0 3
16 41 36 83 20 43 47 103 61 133 79 170 287 575 309 601 8 8 14 19 14 23 0 5
15 33 34 64 19 32 69 116 112 187 88 148 315 493 397 605 153 207 190 256 298
390 588 734 1306 1393 2074 1904 105 69 204 135 220 145 17 10 71 43 120 74
239 147 716 400 970 514 295 132 731 303 775 303 11 0 28 -20 46 -57 46 -92
89 -153 160 -225 70 -71 106 -88 234 -113 54 -10 56 -11 82 -65 14 -30 36 -89
48 -130 25 -82 55 -178 71 -225 6 -16 16 -55 24 -85 7 -30 17 -68 23 -85 26
-73 52 -172 52 -193 0 -12 -6 -33 -14 -45 -8 -12 -18 -49 -22 -81 -3 -32 -13
-71 -20 -85 -8 -14 -14 -44 -14 -66 0 -22 -6 -49 -14 -60 -7 -11 -17 -45 -21
-75 -4 -30 -13 -62 -20 -70 -7 -8 -15 -36 -18 -61 -6 -48 -44 -118 -63 -119
-6 0 -32 -11 -58 -25 -26 -14 -59 -25 -72 -25 -14 0 -38 -6 -52 -14 -15 -8
-43 -17 -63 -21 -21 -3 -42 -12 -49 -20 -6 -8 -32 -17 -57 -21 -25 -4 -54 -15
-64 -25 -13 -13 -33 -19 -64 -19 -31 0 -47 -5 -51 -15 -5 -11 -21 -15 -59 -15
-38 0 -59 -5 -71 -17 -11 -11 -39 -20 -73 -23 -74 -7 -76 -29 -4 -49 37 -10
53 -19 57 -35 6 -23 22 -13 28 19 3 17 10 19 41 17 31 -3 37 0 37 16 0 28 68
72 112 72 40 0 101 -46 79 -60 -22 -13 -8 -45 22 -48 15 -2 34 -14 43 -27 14
-22 14 -26 -3 -49 -10 -14 -32 -30 -48 -36 -17 -5 -36 -19 -43 -31 -12 -19
-10 -28 18 -80 25 -48 32 -73 34 -132 3 -71 17 -117 36 -117 23 0 70 -54 76
-88 3 -20 10 -50 15 -67 11 -38 12 -139 4 -330 -10 -240 -6 -229 -94 -310
-112 -104 -125 -117 -144 -147 -13 -22 -14 -27 -2 -32 21 -8 75 11 120 42 47
33 115 61 133 55 23 -9 12 -52 -25 -98 -95 -115 -258 -300 -369 -415 -125
-131 -214 -244 -258 -326 -38 -72 -46 -84 -96 -140 -66 -74 -103 -131 -96
-149 10 -27 27 -17 112 67 82 80 103 105 241 293 62 85 135 171 234 276 24 25
69 75 99 110 170 196 256 219 214 57 -28 -110 -141 -267 -242 -335 -21 -15
-82 -90 -172 -212 -19 -27 -75 -101 -123 -166 -117 -155 -116 -152 -87 -223
12 -31 31 -70 41 -87 39 -66 163 -324 174 -362 3 -13 10 -23 15 -23 5 0 14
-17 21 -37 10 -32 13 -35 19 -18 9 24 1 51 -38 137 -16 37 -33 80 -37 97 -4
17 -10 31 -15 31 -4 0 -18 26 -30 57 -25 65 -36 91 -49 113 -49 83 -53 152
-13 195 35 38 113 134 182 225 143 188 184 237 218 267 71 62 95 31 54 -69
-22 -53 -26 -80 -28 -173 -1 -60 -9 -155 -18 -210 -9 -55 -20 -176 -25 -270
-6 -93 -17 -201 -25 -240 -44 -202 -76 -487 -58 -514 25 -36 48 40 83 280 11
79 22 145 24 149 9 15 44 316 50 425 3 66 10 147 15 180 50 335 62 395 88 460
16 39 34 98 40 132 12 66 46 129 75 137 27 7 31 -14 24 -158 -4 -83 -3 -123 3
-108 5 12 13 22 18 22 5 0 17 17 26 38 9 20 28 57 40 82 l24 44 11 -39 c6 -22
11 -82 11 -132 0 -103 15 -125 25 -35 7 65 17 93 50 142 13 19 35 69 49 110
28 86 93 238 111 260 7 8 18 31 24 50 6 19 36 84 66 144 61 122 70 174 36 217
-10 13 -22 35 -26 49 -4 14 -23 50 -41 81 -19 31 -34 61 -34 66 0 5 -14 37
-30 70 -17 33 -37 80 -44 104 -8 24 -33 96 -56 159 -23 63 -48 142 -55 175
-41 179 -52 222 -63 242 -7 12 -12 35 -12 50 0 16 -7 38 -15 49 -10 13 -14 45
-15 104 l0 85 33 23 c39 26 57 28 57 6 0 -8 16 -22 35 -30 45 -19 45 -19 45
16 0 38 26 40 65 4 38 -35 78 -30 85 10 7 43 30 46 31 4 1 -18 5 -44 9 -58 8
-24 8 -24 9 -2 1 23 26 31 34 10 2 -8 8 -9 13 -4 5 5 4 11 -3 13 -14 5 -18 45
-6 56 8 8 53 -52 53 -71 0 -16 39 -51 58 -52 6 0 12 -7 12 -14 0 -8 11 -27 25
-42 14 -15 25 -31 25 -36 0 -5 5 -14 11 -21 6 -7 29 -40 52 -73 119 -174 266
-316 449 -431 29 -18 64 -45 79 -59 36 -35 78 -29 145 19 53 37 152 87 175 87
8 0 59 23 114 51 92 47 137 72 354 200 41 24 90 53 110 64 34 19 196 127 450
299 57 39 111 76 121 81 26 16 153 118 183 147 15 14 27 31 27 37 0 6 7 11 15
11 8 0 15 5 15 10 0 7 -7 7 -20 0 -16 -8 -26 -7 -42 5 -30 20 -44 19 -68 -5
-25 -25 -54 -17 -39 11 5 10 14 19 20 19 6 0 4 7 -5 15 -8 8 -29 15 -46 15
-36 0 -38 23 -3 28 14 2 27 17 37 43 21 52 20 64 -5 88 -21 19 -21 19 -55 -15
-32 -31 -74 -46 -74 -25 0 5 7 28 15 51 19 53 19 99 1 106 -7 3 -40 -2 -71
-12 -37 -10 -78 -15 -114 -11 -31 2 -66 1 -78 -4 -12 -4 -38 -3 -58 2 -30 8
-40 7 -54 -5 -23 -21 -89 -20 -113 1 -14 13 -34 17 -71 15 -76 -3 -102 11
-139 79 -27 49 -37 59 -62 61 -25 2 -32 9 -39 35 -12 42 -37 46 -60 10 -10
-16 -17 -31 -15 -33 2 -1 19 -6 37 -9 46 -8 51 -12 51 -39 0 -29 -16 -42 -58
-48 -42 -6 -56 17 -48 77 5 32 3 45 -9 55 -9 8 -23 26 -31 42 -8 15 -25 30
-38 34 -32 8 -43 50 -20 75 13 14 15 28 10 64 -5 28 -12 45 -21 45 -10 0 -12
11 -8 43 7 63 10 67 44 67 43 0 150 39 169 61 8 10 36 28 63 39 42 19 55 40
25 40 -5 0 -31 22 -57 50 -44 47 -46 51 -31 70 11 14 32 22 67 27 l52 6 21 58
c28 75 22 106 -23 113 -68 10 -213 26 -227 24 -36 -3 -46 5 -68 51 -12 27 -22
56 -22 64 0 26 30 41 78 38 31 -1 82 10 147 30 88 29 113 33 205 32 80 -1 119
-6 165 -22 77 -27 143 -26 230 3 95 32 152 38 168 20 29 -35 92 -97 114 -111
22 -15 26 -15 41 1 18 17 19 49 7 171 -4 39 -14 77 -22 85 -8 8 -22 30 -31 49
-9 19 -33 48 -53 64 -46 36 -73 26 -84 -30 -3 -21 -18 -50 -33 -65 -23 -25
-33 -28 -94 -28 -73 0 -253 31 -289 50 -12 7 -61 25 -108 42 -66 22 -101 29
-151 27 -224 -7 -348 21 -335 76 2 11 0 37 -5 58 -6 31 -4 45 10 70 10 18 24
50 30 73 19 63 42 88 74 80 33 -8 62 -55 77 -124 8 -41 14 -52 26 -48 8 3 18
6 23 6 4 0 15 21 24 46 15 45 15 46 -11 85 l-26 40 23 24 c29 31 68 32 129 5
58 -27 189 -27 246 -1 49 22 95 74 95 106 0 31 -55 76 -148 120 -65 31 -94 41
-181 62 -14 4 -38 -2 -58 -13 -29 -15 -38 -16 -55 -5 -11 7 -39 11 -63 10 -36
-2 -48 2 -84 33 -22 19 -41 41 -41 49 -1 8 -17 24 -36 36 -27 18 -40 21 -54
13 -28 -15 -55 -12 -73 8 -29 32 -30 72 -3 147 l26 70 -17 92 c-15 84 -15 96
0 150 9 32 16 90 16 128 0 39 4 83 10 98 6 16 11 42 11 58 0 17 7 44 16 60 16
31 34 122 39 193 2 27 11 46 30 63 39 37 31 89 -24 148 -30 33 -41 53 -41 77
0 20 -14 54 -35 88 -19 30 -35 59 -35 64 0 23 -46 76 -67 76 -27 0 -76 -18
-84 -31 -3 -6 -21 -6 -44 -1 -30 6 -48 3 -77 -11 -58 -29 -102 -17 -128 33
-18 35 -25 40 -56 40 -40 0 -84 39 -84 75 0 12 -13 42 -30 66 -33 49 -35 61
-18 89 11 17 9 28 -15 73 -30 59 -33 79 -13 96 28 24 28 75 0 132 -15 29 -23
54 -17 56 6 2 19 10 29 17 18 14 18 15 1 33 -22 25 -21 41 2 108 15 42 17 63
10 88 -19 67 11 112 71 105 17 -1 36 5 49 16 21 19 21 19 21 -8 0 -59 61 -34
75 31 6 28 3 34 -24 48 -33 17 -42 45 -15 45 9 0 28 12 41 26 18 19 27 24 35
16 9 -9 7 -16 -4 -29 -8 -10 -13 -24 -11 -30 5 -14 51 -17 69 -5 18 12 23 50
9 69 -7 9 -9 24 -5 33 4 8 13 27 20 42 9 20 23 30 48 34 25 5 40 16 54 40 l20
34 116 1 c141 1 166 7 170 38 3 22 7 23 55 18 73 -9 141 -22 155 -31 7 -4 12
-16 12 -26 0 -26 69 -49 84 -28 9 13 29 14 131 6 66 -5 127 -13 137 -18 11 -6
18 -5 21 4 3 7 27 18 54 25 26 7 59 18 73 24 64 29 166 10 215 -38 11 -11 31
-29 45 -40 14 -11 43 -42 64 -68 48 -59 106 -91 147 -82 33 7 39 25 9 25 -13
0 -25 11 -34 33 -7 17 -33 52 -57 77 -55 56 -80 94 -95 142 -29 95 64 59 216
-83 43 -39 60 -62 60 -81 0 -22 3 -25 28 -20 25 4 26 3 8 -10 -22 -18 -15 -53
15 -69 28 -15 49 -4 46 23 -3 29 34 36 69 13 21 -13 25 -14 30 -1 3 8 -2 28
-10 45 -15 28 -20 31 -64 28 -36 -1 -46 1 -44 12 2 7 -6 23 -17 35 -11 11 -21
35 -23 51 -2 20 -11 33 -25 40 -16 6 -23 18 -23 36 0 35 6 38 43 28 18 -4 44
-11 59 -14 14 -2 46 -24 70 -47 24 -24 70 -64 100 -91 106 -89 268 -321 268
-383 0 -8 10 -28 21 -44 13 -16 19 -35 15 -45 -3 -9 -1 -25 4 -36 8 -13 7 -25
0 -40 -9 -16 -8 -24 3 -37 22 -26 30 -61 17 -77 -9 -11 -8 -19 4 -37 9 -12 16
-34 16 -49 0 -15 16 -50 35 -78 19 -28 35 -55 35 -60 0 -4 11 -33 24 -62 34
-77 87 -263 97 -339 12 -89 24 -150 38 -183 6 -16 11 -58 11 -95 0 -75 24
-202 46 -246 8 -16 14 -43 14 -60 0 -17 5 -47 11 -66 6 -19 17 -77 24 -128 7
-51 16 -96 19 -100 13 -12 25 23 32 89 l6 66 34 -10 c30 -9 37 -8 60 14 l25
24 -20 16 c-35 29 -24 35 48 28 81 -7 111 -24 147 -80 29 -46 26 -69 -9 -69
-26 0 -117 -88 -117 -113 0 -8 13 -31 29 -51 17 -21 40 -58 52 -82 12 -25 28
-48 35 -51 8 -3 15 -17 16 -32 0 -14 4 19 8 74 3 55 12 110 19 123 l12 23 21
-26 c44 -56 61 -123 66 -258 6 -161 -17 -317 -89 -612 -11 -44 -24 -105 -30
-135 -5 -30 -19 -68 -30 -83 -12 -16 -17 -33 -13 -37 5 -5 45 -15 89 -24 98
-19 331 -72 399 -91 28 -7 112 -30 186 -50 74 -20 162 -45 195 -55 487 -152
800 -271 1200 -455 507 -234 1043 -544 1473 -854 73 -53 143 -103 156 -111 12
-8 69 -51 125 -95 901 -699 1635 -1510 2223 -2455 217 -349 508 -898 596
-1125 8 -22 18 -44 22 -50 10 -13 85 -193 95 -225 4 -14 11 -29 15 -35 4 -5
16 -35 26 -65 10 -30 22 -57 25 -60 4 -3 14 -29 23 -59 9 -29 20 -59 25 -65 5
-6 16 -33 24 -61 l14 -50 937 -3 c922 -2 936 -2 936 17 0 11 -4 22 -9 25 -5 3
-12 26 -15 51 -4 24 -11 47 -17 50 -5 4 -9 15 -9 25 0 10 -13 58 -29 107 -15
48 -41 129 -57 178 -15 50 -31 95 -35 100 -4 6 -10 25 -14 43 -4 18 -13 45
-21 60 -8 15 -14 35 -14 44 0 9 -4 19 -9 23 -5 3 -13 20 -17 37 -3 18 -10 39
-14 48 -4 8 -18 42 -30 75 -42 115 -52 140 -66 168 -8 16 -14 33 -14 38 0 9
-13 41 -50 124 -5 11 -18 43 -30 70 -12 28 -25 59 -30 70 -5 11 -23 52 -40 90
-18 39 -41 90 -52 115 -32 73 -281 575 -287 580 -3 3 -14 20 -23 38 -43 82
-103 190 -125 224 -12 21 -23 40 -23 44 0 5 -83 145 -132 222 -9 15 -23 37
-30 49 -35 60 -103 169 -110 178 -5 5 -47 69 -95 140 -148 224 -231 341 -378
535 -96 128 -238 308 -298 380 -87 103 -252 296 -256 300 -3 3 -46 50 -95 105
-132 148 -633 644 -771 765 -66 58 -124 110 -130 116 -5 7 -82 71 -170 144
-88 73 -171 142 -185 155 -43 37 -349 268 -465 351 -206 148 -453 312 -639
426 -66 40 -136 83 -155 95 -20 13 -43 26 -51 30 -8 4 -64 35 -123 70 -60 35
-110 63 -113 63 -2 0 -23 12 -47 27 -48 31 -589 304 -687 347 -36 16 -94 42
-130 58 -36 16 -108 48 -160 69 -52 22 -104 44 -115 49 -11 5 -45 19 -75 30
-30 12 -68 27 -85 34 -101 46 -499 186 -740 261 -66 20 -131 41 -145 45 -14 5
-59 18 -100 29 -41 12 -113 32 -160 45 -152 42 -446 113 -623 150 -195 40
-262 53 -492 91 -55 9 -109 18 -120 21 -45 9 -46 11 -29 165 11 101 16 262 17
544 1 220 6 406 10 412 10 16 -6 47 -49 96 -57 63 -42 117 33 117 15 0 35 4
43 10 12 8 12 11 -3 28 -18 19 -23 62 -8 62 5 0 19 31 31 70 25 78 22 107 -15
156 -13 17 -27 43 -31 58 l-7 27 74 -6 c481 -42 1251 -179 1844 -328 l90 -23
5 -369 5 -370 28 -57 c51 -105 144 -177 256 -198 79 -15 2121 -14 2192 1 30 7
63 12 74 12 36 -1 535 -275 885 -486 1564 -947 2941 -2250 3987 -3772 520
-756 967 -1583 1315 -2430 336 -819 593 -1691 754 -2556 l27 -146 106 -16
c224 -35 427 -68 442 -73 15 -4 15 3 3 83 -65 414 -215 1074 -349 1538 -346
1191 -863 2350 -1518 3400 -817 1309 -1843 2462 -3062 3440 -603 484 -1324
963 -1990 1322 -187 101 -363 193 -368 193 -3 0 -8 -51 -12 -112 -3 -62 -13
-134 -21 -159 -15 -48 -76 -115 -129 -141 -61 -31 -85 -41 -87 -37 -29 47 -29
51 -9 56 24 6 27 19 9 26 -10 4 -9 8 2 16 23 17 0 13 -58 -9 -51 -20 -76 -20
-1095 -20 -1026 0 -1043 1 -1087 21 -55 25 -105 71 -133 124 -21 38 -22 54
-25 381 l-3 342 -77 7 c-104 9 -162 36 -221 101 -61 67 -91 142 -93 232 -1 98
23 181 69 234 8 9 11 18 6 21 -12 7 -408 92 -588 126 -325 62 -650 110 -1040
156 l-290 33 -33 39 c-18 21 -48 60 -67 88 -18 27 -52 76 -76 107 -24 32 -68
89 -96 127 -29 38 -53 79 -53 91 0 32 -133 166 -179 181 -20 6 -40 15 -45 20
-6 5 -17 9 -25 9 -9 0 -38 12 -66 25 -30 15 -68 25 -95 25 -25 0 -74 5 -110
11 -36 5 -110 16 -165 24 -135 19 -239 39 -305 59 -30 9 -80 24 -110 32 -30 9
-80 24 -110 34 -30 9 -89 28 -130 40 -41 13 -108 34 -148 48 -67 23 -73 27
-70 51 2 21 10 28 45 36 23 6 45 13 48 17 13 13 -70 23 -178 22 -93 -1 -107 1
-102 14 3 9 116 207 251 440 212 366 245 428 236 447 -14 31 -262 458 -271
468 -4 4 -40 7 -78 5 l-71 -3 139 -240 c77 -132 139 -244 138 -250 0 -5 -114
-206 -252 -445 l-253 -435 -452 -3 -452 -2 -38 38 c-35 35 -94 62 -138 62 -14
0 -74 96 -244 392 -124 215 -224 396 -222 402 2 6 64 115 138 243 74 127 134
234 134 237 0 3 -33 6 -72 6 l-73 0 -140 -245z m-6535 -3063 c22 -38 40 -73
40 -79 0 -5 -9 -18 -21 -29 -51 -46 -49 -13 -49 -924 0 -713 2 -855 14 -878
19 -36 65 -78 99 -91 16 -6 26 -14 24 -18 -2 -5 -37 -65 -77 -136 l-73 -127
-679 2 -680 3 -288 500 c-159 275 -311 537 -337 583 -26 46 -47 89 -45 95 4
14 650 1135 665 1155 7 9 157 12 688 12 l678 0 41 -68z m10263 -1752 c18 -29
18 -31 -1 -55 l-19 -24 -12 25 c-18 39 -13 84 9 84 3 0 14 -14 23 -30z
m-12069 -955 c246 -426 446 -779 444 -784 -2 -5 -203 -356 -448 -780 l-445
-771 -690 2 -690 3 -191 330 -190 330 -211 3 -211 2 -256 444 -256 444 448
775 447 776 901 1 901 0 447 -775z m9125 619 c-32 -38 -122 -58 -158 -35 -12
8 -8 11 15 16 16 3 40 12 54 20 14 7 42 14 64 14 34 1 37 -1 25 -15z m75 7
c10 -16 -21 -20 -41 -6 -17 13 -16 14 9 15 15 0 29 -4 32 -9z m-272 -413 c6
-16 -1 -38 -12 -38 -10 0 -20 37 -12 44 9 10 20 7 24 -6z m-112 -18 c11 -7 8
-11 -15 -20 -71 -26 -83 -33 -79 -44 3 -7 -2 -18 -10 -25 -19 -16 -60 4 -52
25 7 17 -44 20 -61 3 -18 -18 -43 -3 -43 25 0 28 12 33 90 39 95 7 156 6 170
-3z m231 -70 c12 -7 25 -7 37 -1 13 7 24 2 49 -23 31 -30 33 -38 43 -132 11
-104 5 -135 -42 -219 -6 -10 -17 -42 -24 -70 -20 -81 -43 -136 -70 -167 -13
-16 -24 -33 -24 -36 0 -12 -86 -102 -97 -102 -18 0 -25 30 -28 114 -2 61 -7
84 -24 107 -11 15 -21 35 -21 43 0 9 -16 19 -39 26 -41 11 -43 14 -75 115 -14
41 -14 63 -6 135 14 113 21 126 64 134 26 5 40 15 51 36 16 32 51 46 88 37 12
-4 29 -2 37 3 20 13 57 12 81 0z m612 -947 c-7 -2 -19 -2 -25 0 -7 3 -2 5 12
5 14 0 19 -2 13 -5z m-12198 -1263 l220 -380 197 0 c109 0 198 -3 198 -6 0 -8
-276 -488 -303 -527 l-19 -27 -376 2 -376 3 -87 150 c-49 83 -88 156 -89 163
0 8 32 68 71 135 39 67 71 127 71 132 0 6 -43 84 -95 174 -83 141 -94 167 -85
185 22 43 201 352 211 364 6 8 45 12 126 12 l117 0 219 -380z m458 108 c86
-150 169 -292 183 -316 l25 -42 -187 2 -188 3 -178 308 c-98 170 -178 311
-178 313 0 2 82 4 183 4 l182 0 158 -272z m-1082 -310 c45 -79 82 -147 82
-153 0 -13 -115 -215 -123 -215 -3 0 -43 66 -89 146 -64 112 -82 151 -74 163
5 9 33 58 62 109 30 50 55 92 56 92 2 0 40 -64 86 -142z m11706 -540 c-3 -7
-5 -2 -5 12 0 14 2 19 5 13 2 -7 2 -19 0 -25z m-369 -41 c4 -20 -25 -34 -39
-20 -14 14 1 45 20 41 9 -2 17 -11 19 -21z m-298 -1299 c-1 -75 -2 -81 -15
-64 -10 14 -13 37 -11 80 5 72 4 66 16 66 6 0 10 -34 10 -82z"/>
<path d="M13885 25161 c-3 -5 -1 -12 5 -16 5 -3 10 1 10 9 0 18 -6 21 -15 7z"/>
<path d="M2185 31065 c-85 -30 -137 -124 -114 -207 14 -55 72 -113 126 -127
146 -39 267 121 195 256 -18 33 -69 71 -110 83 -46 12 -48 12 -97 -5z"/>
<path d="M0 30690 l0 -70 167 -2 167 -3 125 -217 c69 -120 128 -218 131 -218
8 0 70 110 70 123 -1 7 -59 111 -129 232 l-128 220 -202 3 -201 2 0 -70z"/>
<path d="M8532 30473 c-10 -16 -232 -396 -491 -846 -385 -666 -470 -821 -461
-833 9 -10 34 -14 82 -14 60 0 69 2 64 16 -4 10 159 300 441 790 l447 774 732
0 c596 0 734 2 743 13 8 10 3 27 -22 68 l-32 54 -742 3 -742 2 -19 -27z"/>
<path d="M645 30210 c-20 -33 -34 -67 -31 -75 3 -8 140 -249 306 -534 165
-286 300 -525 300 -531 0 -6 -29 -62 -65 -124 -36 -62 -65 -116 -65 -120 0 -4
33 -6 72 -4 l73 3 67 115 c39 66 66 123 64 135 -2 11 -156 285 -344 608 l-340
588 -37 -61z"/>
<path d="M19892 29189 c-41 -12 -72 -60 -72 -112 0 -31 7 -46 34 -73 29 -29
41 -34 79 -34 57 0 103 35 113 85 8 46 0 56 -35 42 -43 -16 -65 5 -58 54 4 27
1 39 -10 43 -8 3 -15 6 -16 5 -1 0 -17 -5 -35 -10z"/>
<path d="M19542 29173 c-20 -8 -42 -59 -42 -99 0 -51 53 -104 104 -104 41 0
86 18 86 35 0 7 -18 24 -39 38 -26 17 -48 45 -66 81 -15 31 -28 56 -29 55 0 0
-7 -3 -14 -6z"/>
<path d="M20171 29156 c-63 -67 -15 -186 76 -186 32 0 83 18 83 29 0 4 -20 25
-44 48 -25 23 -54 62 -65 87 -11 25 -22 46 -24 46 -2 0 -13 -11 -26 -24z"/>
<path d="M20696 29155 c-36 -37 -32 -121 9 -153 22 -18 54 -19 544 -25 492 -5
591 -1 591 22 0 4 -17 15 -37 24 -29 12 -87 17 -233 21 -454 13 -626 19 -640
22 -8 1 -50 3 -93 3 l-78 1 -23 50 c-22 47 -25 50 -40 35z"/>
<path d="M9085 28937 c-92 -52 -114 -188 -42 -265 31 -34 91 -62 129 -62 49 1
112 33 144 76 61 79 27 222 -62 259 -53 22 -122 19 -169 -8z"/>
<path d="M19303 28823 c9 -2 23 -2 30 0 6 3 -1 5 -18 5 -16 0 -22 -2 -12 -5z"/>
<path d="M19325 28811 l-40 -6 -3 -119 c-2 -106 -1 -118 13 -112 9 3 21 6 27
6 6 0 7 8 3 18 -4 9 -9 44 -11 77 -2 33 -6 75 -9 93 l-4 32 957 0 c601 0 963
4 972 10 16 11 -1835 12 -1905 1z"/>
<path d="M21480 28789 c-119 -32 -426 -188 -483 -245 -33 -33 -34 -66 -8 -190
47 -222 114 -434 174 -548 59 -111 192 -226 367 -317 58 -30 74 -34 145 -34
96 0 146 20 287 117 169 116 229 194 300 393 48 134 115 395 124 482 6 54 4
66 -12 84 -62 69 -383 232 -519 264 -97 22 -280 19 -375 -6z m244 -58 c38 -42
-13 -108 -59 -77 -23 16 -32 61 -14 82 16 20 53 17 73 -5z m397 -68 c77 -36
138 -68 136 -70 -2 -2 -69 28 -148 67 -79 38 -140 69 -135 70 4 0 71 -30 147
-67z m-359 -84 c130 -28 245 -118 301 -237 30 -63 32 -73 32 -182 -1 -105 -3
-120 -29 -175 -38 -79 -133 -173 -211 -209 -74 -34 -195 -45 -276 -26 -129 30
-234 116 -292 238 -30 63 -32 74 -32 177 0 104 2 114 32 175 42 85 80 129 150
176 95 63 214 86 325 63z m542 -18 c-2 -3 -12 3 -22 13 -16 17 -16 18 5 5 12
-7 20 -15 17 -18z m6 -47 c29 -34 -15 -89 -61 -77 -25 7 -42 38 -34 64 12 36
70 44 95 13z m-1168 -8 c14 -32 5 -54 -28 -66 -20 -8 -32 -7 -50 5 -44 29 -23
85 32 85 27 0 37 -5 46 -24z m186 -702 c17 -12 22 -24 20 -47 -3 -28 -7 -32
-38 -35 -55 -6 -78 40 -40 78 24 24 29 24 58 4z m805 -8 c4 -6 6 -24 5 -41 -3
-28 -6 -30 -42 -30 -35 0 -41 4 -49 29 -8 25 -7 32 13 48 23 19 58 16 73 -6z
m-409 -192 c32 -31 8 -84 -38 -84 -29 0 -46 18 -46 50 0 14 5 31 12 38 17 17
54 15 72 -4z"/>
<path d="M21719 28273 c-52 -55 -79 -90 -63 -80 13 8 118 127 112 127 -2 0
-24 -21 -49 -47z"/>
<path d="M21401 28185 c-41 -37 -56 -43 -64 -22 -3 6 -6 -4 -6 -23 -2 -88 62
-204 143 -259 46 -31 104 -54 117 -45 5 3 9 0 9 -5 0 -6 8 -11 17 -11 15 0 14
2 -3 15 -16 13 -17 16 -4 24 37 23 54 40 42 41 -16 0 -50 25 -112 84 -25 23
-69 61 -97 85 -29 24 -53 51 -53 60 0 9 14 33 31 54 38 47 31 47 -20 2z"/>
<path d="M778 28293 l-287 -497 33 -59 c18 -32 36 -59 40 -60 6 -2 646 1097
646 1109 0 2 -33 4 -73 4 l-72 0 -287 -497z"/>
<path d="M7610 28743 c1 -5 34 -64 74 -133 l73 -125 -258 -5 -259 -5 -24 -25
c-25 -25 -25 -27 -26 -205 0 -99 -1 -186 0 -193 0 -10 205 -12 1008 -10 l1007
3 3 72 3 73 -403 2 -403 3 -2 25 c-1 14 -5 78 -9 142 l-6 118 -241 2 -241 3
-61 106 c-98 172 -85 159 -165 159 -39 0 -70 -3 -70 -7z m-32 -425 c7 -7 12
-31 12 -54 0 -62 -22 -74 -135 -74 -58 0 -97 5 -107 13 -19 15 -29 73 -17 105
8 21 13 22 122 22 75 0 117 -4 125 -12z m340 0 c7 -7 12 -33 12 -58 0 -25 -5
-51 -12 -58 -8 -8 -49 -12 -118 -12 -69 0 -110 4 -118 12 -7 7 -12 33 -12 58
0 25 5 51 12 58 8 8 49 12 118 12 69 0 110 -4 118 -12z m341 3 c18 -12 16
-100 -3 -119 -10 -11 -36 -12 -122 -5 l-108 8 -8 44 c-13 75 -4 81 120 81 59
0 113 -4 121 -9z"/>
<path d="M19435 28590 c-3 -5 -1 -10 4 -10 6 0 11 5 11 10 0 6 -2 10 -4 10 -3
0 -8 -4 -11 -10z"/>
<path d="M1602 28141 c-133 -231 -242 -426 -242 -433 1 -7 108 -197 239 -423
l237 -410 494 0 494 0 238 410 c130 226 237 416 238 423 0 7 -76 145 -168 305
-93 161 -201 349 -242 420 l-73 127 -486 0 -487 0 -242 -419z m1395 -46 l222
-385 -222 -385 -222 -384 -445 -1 -445 0 -222 385 -221 385 221 385 222 385
445 0 445 0 222 -385z"/>
<path d="M19415 28531 c-105 -6 -127 -10 -172 -34 -67 -34 -128 -110 -149
-185 -44 -152 33 -304 185 -364 l56 -22 802 0 c452 -1 803 -5 803 -10 0 -7 58
-1 67 8 5 4 -53 201 -66 222 -10 17 -11 17 -8 -6 2 -20 -3 -26 -24 -28 -32 -4
-53 20 -44 49 6 18 12 20 42 16 32 -6 35 -4 29 16 -11 40 -54 241 -63 292 l-8
50 -665 1 c-366 0 -719 -2 -785 -5z m5 -103 c82 -42 114 -133 74 -210 -11 -22
-13 -33 -5 -41 6 -6 11 -18 11 -26 0 -9 21 -38 46 -66 l45 -50 -26 -22 c-14
-13 -32 -23 -40 -23 -26 0 -25 18 1 39 15 12 22 21 17 21 -6 0 -23 18 -38 40
-25 36 -32 40 -57 35 -18 -4 -28 -3 -28 5 0 8 -11 10 -32 7 -114 -18 -205 75
-184 187 9 46 41 85 90 107 53 24 73 24 126 -3z m298 -192 c3 -218 1 -225 -40
-226 -9 0 -24 7 -32 16 -13 13 -16 46 -16 204 0 104 3 196 6 205 5 12 17 15
43 13 l36 -3 3 -209z m167 77 l8 -48 11 45 c12 44 13 45 55 48 48 4 61 -6 61
-50 0 -15 5 -30 10 -33 6 -4 10 6 10 24 0 59 4 61 106 61 l94 0 0 -27 c0 -50
17 -60 25 -14 l7 41 48 0 c45 0 48 -1 54 -31 3 -17 6 -43 7 -58 l1 -26 8 25
c4 14 8 40 9 58 1 31 2 32 46 32 40 0 45 -3 45 -22 0 -18 -21 -117 -46 -215
-2 -8 -22 -13 -53 -13 -47 0 -51 2 -57 28 -12 55 -17 57 -28 14 -6 -24 -14
-43 -18 -43 -5 1 -26 1 -47 1 -39 0 -40 1 -54 53 -8 28 -21 81 -29 117 l-15
65 -12 -45 c-7 -25 -20 -76 -28 -114 -8 -38 -16 -72 -18 -75 -1 -3 -26 -4 -54
-3 l-51 4 -7 51 c-6 49 -7 50 -14 22 -5 -16 -10 -42 -13 -56 -5 -25 -8 -26
-53 -21 -27 2 -49 5 -50 6 -1 1 -15 56 -31 124 l-29 122 47 0 48 0 7 -47z
m710 25 c2 -13 6 -39 8 -58 2 -33 3 -31 16 23 l14 57 42 0 42 0 14 -62 13 -63
11 59 c11 63 20 72 61 62 24 -6 25 -9 19 -55 -4 -26 -14 -79 -24 -117 l-17
-69 -49 0 -49 0 -11 45 -11 45 -10 -45 -9 -45 -49 0 c-46 0 -50 2 -58 30 -8
28 -48 204 -48 212 0 2 20 3 45 3 38 0 45 -3 50 -22z"/>
<path d="M19318 28374 c-53 -28 -64 -94 -25 -140 51 -59 157 -23 157 53 0 47
-16 72 -55 89 -42 17 -43 17 -77 -2z"/>
<path d="M8542 28394 c-26 -18 -30 -65 -6 -88 13 -14 51 -16 255 -16 147 0
248 4 260 10 14 8 19 21 19 51 0 33 -4 41 -26 49 -14 6 -128 10 -252 10 -190
0 -231 -3 -250 -16z"/>
<path d="M15486 28001 c-4 -5 -2 -12 3 -15 5 -4 12 -2 15 3 4 5 2 12 -3 15 -5
4 -12 2 -15 -3z"/>
<path d="M19755 27773 c-84 -4 -109 -16 -126 -61 -13 -33 13 -90 46 -102 35
-13 1064 -14 1099 0 15 5 34 26 43 45 16 34 16 38 -1 70 -10 19 -26 37 -35 42
-16 8 -878 13 -1026 6z"/>
<path d="M399 27637 l-65 -112 -167 -3 -167 -2 0 -70 0 -70 201 2 202 3 69
120 70 119 -29 54 c-15 29 -33 57 -38 62 -7 6 -33 -29 -76 -103z"/>
<path d="M19695 27553 c-65 -17 -87 -98 -39 -144 25 -24 27 -24 236 -24 l210
0 24 28 c31 36 31 78 0 114 l-24 28 -194 2 c-106 1 -202 -1 -213 -4z"/>
<path d="M14220 27476 c0 -8 5 -18 10 -21 6 -3 10 3 10 14 0 12 -4 21 -10 21
-5 0 -10 -6 -10 -14z"/>
<path d="M21968 27431 c-53 -34 -52 -31 -37 -83 16 -59 43 -51 69 19 11 31 20
65 18 75 -3 17 -7 16 -50 -11z"/>
<path d="M14250 27440 c-11 -7 -11 -13 0 -40 14 -34 30 -25 30 17 0 26 -11 35
-30 23z"/>
<path d="M20495 27335 c-31 -30 -33 -83 -6 -116 18 -23 26 -24 159 -27 135 -3
140 -3 168 21 39 34 39 90 0 123 -26 23 -35 24 -162 24 -130 0 -136 -1 -159
-25z"/>
<path d="M7740 26899 c0 -5 5 -7 10 -4 6 3 10 8 10 11 0 2 -4 4 -10 4 -5 0
-10 -5 -10 -11z"/>
<path d="M7940 26787 l0 -123 -40 -83 c-22 -45 -40 -86 -40 -90 0 -3 13 -11
29 -17 l28 -11 45 91 c46 90 46 92 53 224 l6 132 -40 0 -41 0 0 -123z"/>
<path d="M8171 26853 c1 -57 1 -58 10 -18 11 55 11 75 -1 75 -6 0 -9 -25 -9
-57z"/>
<path d="M8370 26787 l0 -124 50 -101 c27 -56 53 -102 57 -102 4 0 18 8 30 18
l21 17 -44 90 -44 90 0 117 0 118 -35 0 -35 0 0 -123z"/>
<path d="M8590 26870 c0 -22 5 -40 10 -40 6 0 10 18 10 40 0 22 -4 40 -10 40
-5 0 -10 -18 -10 -40z"/>
<path d="M4115 26831 c-11 -5 -37 -27 -57 -49 -80 -88 -52 -224 56 -273 70
-32 134 -20 194 35 78 70 72 197 -13 262 -30 23 -49 29 -99 31 -33 2 -70 -1
-81 -6z"/>
<path d="M15557 26809 c-7 -4 -36 -10 -64 -14 -29 -4 -68 -17 -86 -29 -44 -30
-88 -45 -111 -36 -30 10 -145 -8 -179 -29 -34 -20 -62 -16 -86 13 -12 15 -16
13 -37 -16 -13 -17 -24 -39 -24 -48 0 -9 -11 -39 -25 -66 -29 -57 -32 -112 -8
-157 11 -20 17 -56 17 -97 1 -58 3 -66 26 -77 14 -7 34 -13 44 -13 11 0 29 -9
41 -20 11 -11 39 -26 60 -33 37 -13 40 -17 46 -58 7 -52 63 -164 93 -185 79
-55 156 -104 164 -104 5 0 38 -15 73 -34 35 -18 90 -42 121 -52 52 -16 67 -16
140 -5 170 25 205 33 244 57 21 13 55 31 74 40 32 15 59 40 60 56 0 3 -65 7
-145 7 -126 1 -151 4 -185 22 -22 12 -43 26 -46 31 -9 15 19 38 57 48 69 18
142 47 153 61 21 26 50 36 84 28 19 -4 71 -7 115 -8 45 0 105 -6 133 -12 67
-15 121 -5 130 23 5 17 -1 28 -29 52 -63 54 -136 106 -175 123 -20 10 -49 26
-64 36 -18 11 -41 17 -63 15 -42 -4 -45 -19 -7 -33 47 -18 102 -56 96 -67 -9
-14 -86 -3 -138 20 -23 11 -93 27 -156 37 -153 23 -150 22 -122 45 26 22 22
39 -18 69 -24 17 -30 29 -30 60 0 31 9 50 45 94 25 31 55 59 68 62 37 12 127
54 127 61 0 19 -24 44 -43 44 -14 0 -32 12 -45 30 -43 58 -65 65 -195 65 -65
0 -124 -3 -130 -6z"/>
<path d="M16003 26802 c-31 -3 -31 -4 -21 -35 16 -48 55 -76 105 -75 24 0 49
-5 56 -11 26 -21 162 -44 267 -45 91 -1 105 1 108 16 4 23 -22 44 -131 102
l-92 49 -130 1 c-71 0 -144 0 -162 -2z"/>
<path d="M16000 26650 c0 -5 9 -10 20 -10 11 0 20 5 20 10 0 6 -9 10 -20 10
-11 0 -20 -4 -20 -10z"/>
<path d="M15934 26348 c-3 -4 11 -8 30 -8 20 0 36 2 36 4 0 8 -61 12 -66 4z"/>
<path d="M8238 25553 c7 -3 16 -2 19 1 4 3 -2 6 -13 5 -11 0 -14 -3 -6 -6z"/>
<path d="M15505 25303 c9 -21 24 -49 34 -63 9 -14 28 -68 40 -121 13 -57 29
-103 40 -113 25 -22 105 -16 109 9 5 21 -35 102 -53 109 -7 2 -16 18 -20 35
-3 16 -17 37 -30 45 -14 9 -33 33 -43 54 -32 65 -46 82 -70 82 -22 0 -22 -1
-7 -37z"/>
<path d="M17240 25050 c0 -11 -7 -23 -15 -26 -23 -9 -19 -33 5 -27 15 4 20 14
20 39 0 19 -2 34 -5 34 -3 0 -5 -9 -5 -20z"/>
<path d="M0 25004 c0 -42 9 -64 60 -151 55 -94 63 -103 90 -103 l29 0 -85 148
c-47 81 -88 149 -90 151 -2 2 -4 -18 -4 -45z"/>
<path d="M15934 22942 c-8 -11 -22 -16 -48 -14 -51 4 -43 -20 9 -30 50 -11 65
-5 65 26 0 31 -13 40 -26 18z"/>
<path d="M17242 22715 c0 -16 2 -22 5 -12 2 9 2 23 0 30 -3 6 -5 -1 -5 -18z"/>
<path d="M17352 22234 c-11 -20 -5 -74 8 -74 12 0 21 60 11 78 -7 13 -10 13
-19 -4z"/>
<path d="M12233 22182 c-15 -2 -23 -10 -23 -24 0 -14 5 -18 16 -14 9 3 26 6
38 6 12 0 31 6 41 14 17 12 16 14 -16 17 -19 2 -44 3 -56 1z"/>
<path d="M12117 22143 c-26 -7 -10 -23 23 -23 33 0 48 15 24 24 -17 6 -19 6
-47 -1z"/>
<path d="M12727 22114 c-8 -8 1 -24 14 -24 5 0 9 7 9 15 0 15 -12 20 -23 9z"/>
<path d="M11964 22096 c-3 -8 -27 -17 -55 -21 -65 -9 -60 -31 5 -28 50 1 156
39 156 54 0 16 -100 11 -106 -5z"/>
<path d="M12478 22103 c6 -2 18 -2 25 0 6 3 1 5 -13 5 -14 0 -19 -2 -12 -5z"/>
<path d="M13370 22100 c0 -5 5 -10 11 -10 5 0 7 5 4 10 -3 6 -8 10 -11 10 -2
0 -4 -4 -4 -10z"/>
<path d="M11765 22020 c8 -13 35 -13 55 0 11 7 5 10 -23 10 -23 0 -36 -4 -32
-10z"/>
<path d="M13986 21450 c-20 -50 -20 -69 -1 -76 18 -7 20 -50 4 -60 -7 -4 -20
4 -30 17 -14 19 -22 22 -35 13 -10 -6 -22 -19 -28 -29 -6 -10 -31 -51 -56 -89
-25 -39 -53 -91 -64 -116 -10 -25 -24 -60 -32 -78 -15 -35 -18 -80 -8 -107 6
-14 8 -14 25 1 11 9 19 28 19 41 0 16 6 23 19 23 14 0 20 -10 25 -39 3 -21 12
-44 21 -51 50 -42 85 -165 64 -230 -10 -32 -19 -140 -11 -140 14 0 42 23 42
34 0 19 26 28 38 13 24 -31 31 -82 25 -174 -4 -66 -3 -94 4 -90 6 4 13 17 17
30 9 38 56 116 76 127 13 7 22 4 38 -13 34 -36 44 -75 51 -202 5 -69 14 -131
21 -145 l14 -25 7 40 c5 22 8 139 8 260 1 229 2 222 -53 427 -8 31 -18 104
-22 163 -4 58 -11 108 -15 111 -5 3 -6 16 -3 30 6 22 3 24 -25 24 -18 0 -42
-7 -55 -16 l-24 -15 -15 67 c-9 36 -13 72 -10 80 2 7 20 22 39 33 34 20 34 22
30 72 -3 29 -12 59 -20 68 -8 9 -16 25 -18 36 -2 11 -13 21 -24 23 -17 2 -25
-6 -38 -38z"/>
<path d="M15400 21050 c0 -5 9 -10 19 -10 11 0 23 5 26 10 4 6 -5 10 -19 10
-14 0 -26 -4 -26 -10z"/>
<path d="M15340 21011 c0 -5 -16 -15 -35 -21 -19 -6 -35 -16 -35 -22 0 -18
-45 -48 -82 -54 -43 -7 -48 -18 -17 -35 17 -9 19 -13 8 -19 -7 -5 -22 -4 -33
2 -15 8 -22 7 -32 -7 -15 -20 -1 -52 27 -60 9 -3 19 -19 22 -35 5 -21 17 -35
46 -50 47 -24 58 -41 72 -115 8 -45 7 -59 -6 -78 -19 -29 -9 -61 29 -96 14
-14 26 -30 26 -36 0 -6 12 -36 26 -66 56 -117 64 -137 64 -147 0 -6 9 -13 20
-17 14 -4 32 4 60 26 22 18 40 36 40 41 0 4 4 8 8 8 10 0 101 91 151 150 18
22 40 40 47 40 8 0 14 7 14 15 0 18 -34 37 -46 26 -5 -5 -23 -13 -41 -19 -30
-10 -32 -9 -42 19 -7 21 -7 29 2 29 8 0 7 4 -3 9 -8 6 -27 7 -43 4 -23 -5 -29
-2 -34 15 -3 13 -16 23 -34 27 -16 4 -34 15 -39 25 -9 17 -13 15 -50 -21 -22
-22 -40 -44 -40 -48 0 -12 -30 -22 -42 -15 -5 3 -1 14 11 26 16 14 19 23 11
37 -6 13 -5 27 3 45 11 24 22 30 55 29 6 -1 12 4 12 11 0 6 9 18 20 26 26 19
26 56 0 70 -17 9 -22 7 -29 -12 -8 -21 -10 -19 -20 20 -9 33 -9 50 1 77 12 36
23 44 31 23 2 -7 3 7 3 32 -1 39 -4 45 -23 48 -13 2 -23 -1 -23 -7 0 -6 -14
-11 -31 -11 -17 0 -28 4 -24 10 3 6 17 10 31 10 17 0 24 6 24 19 0 10 10 25
23 34 l22 15 -27 7 c-16 4 -28 11 -28 16 0 5 -11 9 -25 9 -14 0 -25 -4 -25 -9z"/>
<path d="M9545 20931 c-41 -40 -51 -53 -57 -78 -11 -40 8 -47 33 -11 12 18 35
48 51 66 25 30 30 52 10 52 -4 0 -21 -13 -37 -29z"/>
<path d="M9455 20790 c3 -5 8 -10 11 -10 2 0 4 5 4 10 0 6 -5 10 -11 10 -5 0
-7 -4 -4 -10z"/>
<path d="M12564 20667 c-29 -29 -40 -67 -21 -67 24 0 64 38 69 65 7 32 -18 33
-48 2z"/>
<path d="M12315 20651 c-6 -11 9 -23 19 -14 9 9 7 23 -3 23 -6 0 -12 -4 -16
-9z"/>
<path d="M1828 20584 c-16 -8 -28 -17 -28 -19 0 -3 51 -5 113 -5 l112 0 -30
20 c-37 24 -127 26 -167 4z"/>
<path d="M12499 20582 c-19 -4 -74 -77 -95 -127 -15 -36 -15 -37 8 -30 29 9
48 24 48 38 0 6 14 25 31 43 33 34 38 82 8 76z"/>
<path d="M1375 20530 c-82 -7 -116 -26 -150 -85 -25 -42 -25 -43 -25 -308 l0
-267 -307 -2 -307 -3 -202 -349 -201 -348 79 -137 c43 -75 134 -232 201 -348
l122 -213 405 0 406 0 30 53 30 52 490 3 491 2 6 -132 c4 -73 4 -143 1 -155
-5 -18 -21 -28 -71 -43 -120 -37 -111 -39 152 -39 247 -1 251 0 340 28 l90 28
-3 139 c-2 85 1 145 7 154 8 11 11 -25 11 -123 l0 -138 143 3 142 3 30 120
c17 66 34 128 38 138 6 16 33 17 369 17 357 0 364 1 403 23 21 12 51 40 66 62
23 34 28 54 34 137 l7 97 -41 21 c-38 19 -43 19 -65 5 -21 -14 -25 -27 -31
-95 -11 -125 36 -115 -533 -118 -385 -2 -489 -5 -502 -16 -31 -26 -52 -27 -79
-3 l-26 23 -565 -8 c-311 -4 -660 -11 -776 -14 -147 -4 -218 -3 -232 5 l-21
11 2 828 c1 455 6 835 10 844 5 9 16 20 25 25 9 4 610 9 1334 11 1311 2 1318
2 1338 -18 13 -13 20 -33 20 -57 0 -55 11 -113 21 -113 5 0 9 25 9 56 l0 55
51 -6 52 -7 -6 53 c-7 61 -44 114 -98 142 -32 16 -113 17 -1339 15 -718 0
-1336 -4 -1375 -8z m-175 -1265 c5 -512 7 -563 23 -593 23 -43 89 -85 143 -92
l44 -5 -20 -33 -20 -32 -381 2 -381 3 -186 320 c-101 176 -185 325 -185 331 0
6 84 158 188 338 l188 326 291 -2 291 -3 5 -560z"/>
<path d="M15780 20511 c0 -17 5 -33 10 -36 6 -3 10 -2 10 3 0 5 9 12 20 15 12
3 20 14 20 26 0 17 -6 21 -30 21 -27 0 -30 -3 -30 -29z"/>
<path d="M13476 20444 c-9 -23 -7 -62 3 -68 10 -6 21 26 21 62 0 25 -15 30
-24 6z"/>
<path d="M9266 20403 c-4 -18 -13 -36 -20 -40 -11 -7 -38 -57 -65 -123 -6 -14
-15 -32 -20 -40 -4 -8 -18 -37 -31 -65 -13 -27 -27 -57 -31 -65 -5 -8 -14 -26
-19 -40 -6 -14 -17 -37 -25 -52 -8 -14 -15 -33 -15 -42 0 -8 -9 -20 -20 -26
-11 -6 -20 -21 -20 -35 0 -13 -5 -27 -11 -31 -6 -3 -17 -22 -25 -40 -8 -19
-19 -34 -24 -34 -5 0 -12 -16 -16 -35 -3 -19 -12 -39 -20 -46 -8 -6 -14 -20
-14 -31 0 -11 -9 -31 -20 -45 -11 -14 -20 -34 -20 -43 0 -10 -6 -23 -14 -29
-7 -6 -16 -25 -20 -42 -3 -17 -13 -37 -21 -45 -8 -9 -15 -30 -15 -47 0 -20 -8
-39 -20 -50 -11 -9 -20 -29 -20 -46 0 -16 -6 -34 -14 -40 -7 -6 -16 -29 -20
-50 -3 -21 -13 -44 -21 -51 -8 -7 -15 -20 -15 -29 0 -9 -9 -33 -20 -54 -11
-20 -20 -49 -20 -64 0 -14 -7 -34 -16 -44 -8 -9 -14 -30 -12 -45 3 -27 3 -27
22 -9 18 18 19 18 32 0 8 -10 14 -32 14 -47 0 -16 6 -39 14 -51 8 -12 16 -51
19 -87 5 -66 44 -195 77 -257 18 -34 17 -63 -1 -63 -5 0 -9 -10 -9 -23 0 -28
53 -82 73 -74 10 4 20 -7 32 -34 10 -21 24 -44 31 -50 7 -5 16 -39 19 -74 4
-36 14 -70 21 -76 8 -6 14 -22 14 -35 0 -25 15 -40 24 -25 4 5 9 38 12 73 4
50 38 186 51 207 2 2 12 -4 22 -13 19 -17 20 -16 31 38 8 41 8 65 1 89 -8 22
-8 57 0 117 5 47 12 123 15 168 2 46 6 87 9 92 3 4 9 93 15 196 10 197 23 286
46 318 13 19 14 18 24 -8 5 -15 9 -48 8 -74 -1 -26 2 -84 7 -130 6 -65 11 -80
21 -71 8 6 11 23 7 44 -6 35 19 114 40 127 8 5 7 15 -2 35 -17 38 -30 109 -41
223 -4 52 -14 151 -20 220 -21 219 -6 425 49 674 5 22 6 49 1 60 -6 19 -8 17
-14 -11z m-431 -1583 c3 -5 1 -10 -4 -10 -6 0 -11 5 -11 10 0 6 2 10 4 10 3 0
8 -4 11 -10z m75 -246 c0 -36 -4 -64 -10 -64 -6 0 -10 30 -10 71 0 44 4 68 10
64 6 -3 10 -35 10 -71z"/>
<path d="M12325 20385 c-60 -31 -105 -116 -52 -99 32 9 43 20 62 59 9 19 20
35 25 35 6 0 10 5 10 10 0 14 -10 13 -45 -5z"/>
<path d="M1770 19937 c0 -245 1 -255 21 -273 19 -17 42 -19 269 -22 313 -5
290 -19 290 176 0 80 -7 183 -17 248 l-17 111 -125 7 c-69 3 -192 6 -273 6
l-148 0 0 -253z"/>
<path d="M2475 19940 c-9 -307 -18 -290 146 -306 63 -7 137 -20 165 -31 l50
-20 34 24 c19 12 40 23 47 23 31 0 83 35 93 63 21 62 13 87 -45 148 -61 64
-67 88 -30 125 21 21 31 24 56 19 l31 -7 -3 85 c-2 48 -8 90 -14 95 -5 6 -125
13 -266 17 l-257 7 -7 -242z"/>
<path d="M13925 19925 c-4 -55 -13 -113 -20 -130 -16 -33 -45 -235 -44 -305 2
-412 12 -530 50 -551 11 -6 19 -20 19 -36 0 -20 3 -23 13 -14 18 14 27 4 27
-31 0 -29 -13 -37 -27 -15 -19 30 -29 -126 -16 -269 7 -86 6 -88 38 61 9 43
22 91 30 105 7 14 15 53 19 87 4 35 14 86 22 114 17 56 13 114 -11 184 -8 22
-16 94 -18 163 -4 110 -7 125 -27 147 -18 20 -23 39 -29 122 -4 54 -6 171 -4
260 3 193 -10 261 -22 108z"/>
<path d="M13780 19855 c0 -38 2 -66 4 -64 8 7 10 118 3 126 -4 3 -7 -24 -7
-62z"/>
<path d="M12756 19877 c-62 -104 -106 -213 -106 -261 0 -18 7 -41 15 -52 8
-10 19 -35 25 -56 8 -30 14 -35 31 -31 19 5 20 10 14 78 -7 68 -4 81 29 175
37 103 47 180 24 180 -7 0 -22 -15 -32 -33z"/>
<path d="M3290 19872 c-19 -9 -56 -37 -81 -62 -43 -41 -48 -51 -59 -116 -13
-81 -6 -108 51 -190 40 -58 100 -87 184 -88 55 -1 65 3 122 41 73 51 96 98 97
202 1 62 -2 70 -41 127 -43 63 -63 76 -143 94 -63 14 -90 12 -130 -8z m188
-68 c13 -9 37 -36 53 -62 28 -43 30 -52 24 -106 -9 -81 -24 -105 -89 -145 -49
-29 -62 -33 -99 -27 -84 13 -103 24 -142 83 -35 52 -37 60 -31 109 3 29 10 64
16 78 10 28 87 87 123 97 30 7 117 -9 145 -27z"/>
<path d="M4150 19798 c-39 -29 -47 -42 -59 -91 -13 -57 -13 -58 15 -105 54
-86 148 -108 230 -52 36 25 46 40 59 84 19 67 13 94 -34 147 -34 38 -40 41
-101 46 -62 5 -67 4 -110 -29z m167 -24 c37 -24 56 -71 48 -121 -5 -36 -13
-49 -47 -73 -44 -32 -63 -35 -118 -20 -23 6 -43 22 -57 45 -40 62 -27 128 34
170 31 21 45 25 78 20 22 -3 50 -13 62 -21z"/>
<path d="M13783 19605 c0 -27 2 -38 4 -22 2 15 2 37 0 50 -2 12 -4 0 -4 -28z"/>
<path d="M2785 19520 c3 -5 14 -10 23 -10 15 0 15 -2 2 -10 -8 -6 -82 -10
-169 -9 -132 1 -155 -1 -163 -15 -5 -9 -8 -124 -6 -257 3 -225 4 -242 22 -255
14 -10 51 -14 133 -14 l114 0 -7 50 c-12 91 18 99 169 45 54 -19 104 -35 111
-35 13 0 16 22 29 220 2 25 13 64 25 87 29 55 28 90 -3 136 l-26 37 -73 0
c-58 0 -79 4 -99 20 -26 20 -93 29 -82 10z"/>
<path d="M2055 19489 c-154 -3 -281 -6 -282 -7 -2 -1 -3 -116 -3 -255 0 -236
1 -255 19 -271 17 -15 45 -17 271 -14 251 3 252 3 271 27 18 21 19 42 19 265
0 132 -4 246 -8 251 -4 6 -105 8 -287 4z"/>
<path d="M13775 19467 c-4 -10 -5 -21 -1 -24 10 -10 18 4 13 24 -4 17 -4 17
-12 0z"/>
<path d="M4060 19324 c0 -31 2 -35 15 -24 8 7 15 23 15 36 0 15 -6 24 -15 24
-11 0 -15 -11 -15 -36z"/>
<path d="M3232 19267 c-31 -33 -27 -44 14 -39 20 3 54 -1 75 -8 46 -15 56 -9
41 24 -7 16 -25 29 -49 35 -52 15 -57 14 -81 -12z"/>
<path d="M3920 19183 c-39 -27 -49 -45 -50 -87 -1 -141 193 -172 230 -36 12
46 -3 85 -46 119 -33 26 -100 28 -134 4z m97 -14 c72 -25 81 -124 14 -162 -99
-59 -196 94 -97 154 36 22 43 23 83 8z"/>
<path d="M4175 19190 c-3 -5 -1 -10 4 -10 6 0 11 5 11 10 0 6 -2 10 -4 10 -3
0 -8 -4 -11 -10z"/>
<path d="M4180 19040 c0 -16 5 -30 10 -30 6 0 10 14 10 30 0 17 -4 30 -10 30
-5 0 -10 -13 -10 -30z"/>
<path d="M13798 18646 c-10 -20 -21 -86 -28 -158 -10 -115 -53 -369 -66 -390
-4 -5 -10 -49 -14 -96 -5 -48 -13 -141 -20 -207 -6 -66 -16 -154 -21 -195 -6
-41 -17 -133 -24 -205 -8 -71 -18 -150 -24 -175 -5 -25 -13 -99 -16 -165 -4
-66 -13 -138 -21 -160 -15 -42 -30 -144 -44 -310 -4 -55 -11 -127 -15 -160 -6
-55 -5 -63 21 -100 22 -32 28 -51 28 -97 1 -62 13 -79 18 -26 5 47 25 46 40
-4 18 -60 18 -342 0 -385 -12 -27 -11 -41 8 -108 16 -58 20 -93 16 -143 -42
-548 -54 -793 -55 -1177 -1 -132 -6 -274 -11 -315 -6 -41 -15 -135 -20 -209
-6 -73 -15 -152 -21 -175 -5 -22 -16 -86 -24 -141 -16 -122 -25 -157 -55 -215
-19 -36 -24 -63 -25 -130 -1 -63 -7 -98 -24 -136 -20 -46 -24 -50 -51 -46 -35
5 -48 -16 -34 -57 7 -19 17 -26 38 -26 17 -1 32 -8 38 -20 18 -30 1 -480 -31
-845 -23 -260 -33 -443 -41 -790 -5 -201 -13 -414 -20 -473 -12 -120 -35 -401
-50 -607 -6 -74 -17 -201 -25 -283 -8 -81 -15 -205 -15 -275 0 -177 -26 -589
-49 -789 -11 -93 -22 -206 -25 -253 -40 -567 -65 -810 -87 -836 -17 -20 -62
-14 -73 11 -5 11 -19 28 -32 38 -23 17 -24 17 -24 -4 0 -11 10 -31 22 -44 23
-24 46 -84 80 -205 23 -86 23 -145 -8 -780 -10 -195 -18 -535 -19 -755 0 -220
-4 -406 -8 -412 -9 -15 -29 -396 -32 -613 -1 -85 -7 -184 -13 -220 -5 -36 -11
-130 -12 -210 -1 -80 -6 -150 -11 -157 -6 -6 -10 -56 -10 -110 0 -54 -3 -114
-8 -133 -5 -24 -3 -42 6 -57 12 -18 12 -26 -1 -56 -12 -30 -13 -72 -4 -289 10
-261 12 -334 9 -574 -1 -78 3 -174 9 -214 7 -50 7 -77 -1 -91 -8 -15 -7 -24 3
-36 8 -10 13 -41 13 -77 0 -47 -4 -64 -18 -75 -13 -9 -17 -21 -13 -37 6 -21 3
-24 -23 -24 -16 0 -31 6 -34 14 -3 7 -21 16 -41 19 -20 3 -43 12 -51 20 -8 8
-33 17 -57 21 -24 4 -70 20 -102 36 -44 22 -73 30 -115 30 -34 1 -72 8 -96 20
-22 11 -47 20 -55 20 -8 0 -37 13 -65 29 -102 58 -314 161 -333 161 -38 0
-217 101 -257 145 -69 76 -188 144 -366 210 -174 65 -191 72 -326 136 -75 35
-177 102 -215 141 -15 16 -37 46 -48 68 -29 57 -191 216 -229 225 -53 11 -193
74 -219 97 -14 13 -42 41 -61 62 -20 22 -55 58 -78 82 -24 23 -43 47 -43 52 0
5 -9 12 -21 15 -28 7 -63 -28 -56 -56 2 -12 14 -65 26 -117 19 -80 21 -112 16
-200 -4 -63 -3 -115 3 -131 6 -14 33 -54 61 -89 28 -35 51 -72 51 -82 0 -17
-2 -17 -34 -4 -43 18 -357 184 -546 289 -462 255 -899 538 -1373 886 -87 64
-161 115 -164 114 -4 -1 -14 -26 -23 -55 -27 -89 -81 -177 -150 -247 -36 -37
-49 -49 -29 -27 168 193 222 425 154 661 -15 50 -19 55 -45 55 -16 0 -40 4
-54 10 -18 6 -37 5 -63 -4 -43 -15 -43 -17 -19 -111 64 -247 -67 -503 -302
-588 -34 -12 -92 -22 -144 -25 -154 -8 -293 51 -404 170 -256 277 -152 721
195 828 78 25 206 26 282 4 109 -32 221 -111 290 -204 l26 -34 41 18 c34 15
43 26 56 65 l15 46 -42 43 c-59 61 -150 125 -238 167 -249 118 -567 69 -748
-114 -107 -109 -166 -237 -182 -401 -6 -52 -14 -99 -19 -104 -6 -6 -4 -14 4
-20 13 -10 56 -157 60 -201 1 -18 -7 -21 -64 -26 -87 -9 -1017 -11 -1102 -2
l-68 6 0 107 c0 85 -3 110 -15 120 -13 11 -94 12 -397 6 -218 -4 -389 -11
-399 -17 -18 -9 -19 -29 -19 -367 0 -196 4 -362 8 -368 4 -6 16 -14 27 -17 26
-8 735 18 758 28 31 13 37 50 37 233 0 97 4 171 8 165 6 -10 80 -13 292 -15
l285 -3 3 -143 3 -142 -58 -27 c-51 -23 -55 -27 -33 -31 14 -2 108 -2 210 0
146 4 205 10 277 27 l92 23 3 146 3 147 117 3 117 3 33 -38 c158 -180 341
-267 558 -266 104 0 192 19 279 60 35 17 59 23 67 17 7 -5 102 -74 211 -153
555 -406 1161 -780 1791 -1104 225 -116 253 -133 248 -151 -3 -12 -14 -57 -26
-101 -16 -61 -20 -97 -15 -150 7 -98 -20 -441 -39 -487 -9 -21 -16 -57 -16
-81 0 -24 -6 -66 -14 -93 -8 -27 -18 -71 -21 -99 -4 -27 -13 -70 -20 -95 -7
-25 -17 -81 -20 -125 -4 -43 -11 -90 -16 -104 -6 -13 -14 -81 -19 -150 -6 -69
-14 -141 -20 -160 -5 -18 -12 -115 -15 -215 -4 -99 -12 -228 -20 -286 -7 -58
-17 -215 -20 -350 -4 -138 -13 -277 -21 -318 -8 -41 -14 -100 -14 -133 l0 -59
2188 0 2187 0 41 53 c43 56 102 162 143 257 13 30 32 74 43 98 10 23 27 63 39
90 11 26 27 61 34 77 7 17 22 51 34 76 12 25 21 50 21 55 0 10 105 275 131
330 10 23 19 48 19 55 0 8 6 23 14 34 7 11 17 36 21 55 4 19 13 44 19 55 7 11
16 38 20 60 4 22 12 45 17 51 5 6 13 31 18 55 9 42 29 108 52 174 6 17 15 52
20 79 4 27 10 50 12 53 3 2 35 1 71 -3 65 -7 67 -8 82 -43 9 -20 18 -52 21
-71 3 -19 13 -48 21 -65 9 -16 19 -48 23 -70 7 -36 23 -90 50 -170 32 -92 51
-204 59 -350 5 -91 15 -177 23 -200 37 -103 47 -148 52 -250 4 -60 13 -130 20
-155 7 -25 16 -69 20 -99 3 -30 13 -67 21 -82 7 -15 14 -38 14 -51 0 -13 5
-40 11 -60 l10 -38 2074 0 2075 0 0 69 c0 41 8 93 20 131 11 34 20 86 20 114
0 28 7 76 15 106 8 30 15 73 15 96 0 22 9 74 19 115 10 41 22 98 25 127 4 29
9 59 12 67 5 13 55 15 354 15 l348 0 235 -407 c180 -313 239 -409 256 -411 17
-3 -3 38 -114 230 -74 128 -185 322 -247 430 l-113 197 -352 1 c-285 0 -353 3
-353 13 0 7 8 47 18 88 18 71 35 147 83 364 12 55 27 118 35 140 7 22 17 66
23 98 6 31 15 65 20 75 5 9 12 40 16 67 5 28 14 67 21 89 8 21 14 49 14 63 0
13 9 49 20 80 11 32 20 69 21 83 0 14 11 57 23 95 l23 70 31 -55 c18 -30 199
-345 404 -700 l373 -645 199 -3 c116 -1 196 1 194 7 -1 5 -14 32 -28 59 l-25
51 -131 1 -131 0 -369 637 c-202 351 -376 652 -386 669 l-18 31 291 97 c839
278 1635 634 2438 1090 74 42 138 73 142 69 4 -5 131 -222 282 -483 l275 -475
71 -3 c39 -2 71 -1 71 2 0 3 -47 85 -103 183 -351 604 -488 846 -480 853 4 4
89 58 188 120 99 62 274 176 389 254 116 78 222 149 237 159 l27 17 258 -449
259 -450 700 -1 701 0 349 607 c193 334 349 610 348 614 -2 5 -159 278 -349
609 l-347 600 -54 0 -54 0 172 183 c95 100 175 183 178 185 4 1 121 -197 262
-440 l255 -443 973 0 973 0 354 615 c196 338 414 717 485 841 l131 227 -245
423 c-134 233 -250 434 -256 446 l-11 22 122 3 123 3 107 185 c59 102 111 186
116 188 5 1 134 -215 287 -480 154 -266 316 -546 360 -623 l81 -140 360 -3
360 -2 78 -136 c78 -134 90 -149 120 -142 11 2 -5 37 -64 138 l-78 135 194 3
c185 2 194 3 194 22 0 19 -9 20 -210 22 l-209 3 100 175 c56 96 152 264 215
373 103 177 115 203 112 240 -3 44 8 62 -407 -660 l-76 -133 -335 0 -335 0
-126 218 c-69 119 -232 402 -363 629 l-237 411 76 132 77 131 -96 167 c-53 92
-96 171 -96 175 0 4 141 252 313 550 172 298 344 597 382 664 l70 122 573 1
c566 0 572 0 572 20 0 20 -5 20 -580 18 l-581 -3 -383 -663 c-211 -365 -387
-662 -392 -661 -5 2 -48 71 -96 154 l-86 150 -403 0 -403 0 -171 -297 -170
-297 -99 -1 c-79 0 -97 3 -93 14 3 7 46 87 97 177 152 275 394 764 530 1074
599 1366 972 2834 1094 4305 21 248 38 521 33 526 -2 2 -19 -1 -38 -6 -56 -16
-213 -11 -356 11 -73 12 -137 19 -140 15 -4 -3 -12 -97 -19 -209 -89 -1427
-417 -2852 -958 -4154 -221 -534 -546 -1183 -822 -1648 l-60 -100 -334 -3
-335 -3 -470 -815 c-258 -448 -476 -827 -484 -843 -13 -27 -10 -34 63 -159 42
-72 79 -138 82 -146 4 -9 -5 -29 -21 -48 -86 -103 -458 -487 -629 -649 l-198
-189 -252 0 -251 0 -233 -404 c-129 -222 -243 -413 -255 -424 -110 -99 -847
-602 -1109 -756 l-46 -27 -29 51 -28 50 -975 0 -975 0 -192 -333 c-106 -182
-199 -341 -208 -352 -15 -19 -15 -18 -9 20 9 62 53 187 72 208 14 16 16 35 14
102 -2 77 -1 85 24 114 37 44 46 92 33 177 -6 39 -10 106 -7 148 l3 76 55 50
c30 27 58 50 62 50 4 0 13 6 20 13 31 32 179 147 188 147 6 0 10 7 10 15 0 8
7 15 15 15 9 0 19 8 22 17 12 31 151 172 169 173 7 0 14 9 17 20 3 12 14 20
26 20 12 0 21 6 21 14 0 8 14 17 30 21 17 4 30 11 30 16 0 5 11 14 25 19 14 5
25 14 25 20 0 5 11 12 25 16 14 3 29 11 33 18 9 14 69 56 80 56 5 0 17 9 27
20 10 11 23 20 28 20 5 0 40 25 78 55 37 30 72 55 76 55 4 0 35 25 68 55 33
30 63 55 66 55 13 0 67 57 73 78 9 26 -3 28 -46 6 -16 -9 -40 -13 -53 -10 -23
6 -30 27 -44 131 l-6 50 -75 -1 c-41 -1 -94 -6 -117 -11 -69 -16 -89 6 -184
199 -27 53 -31 57 -76 66 -26 6 -82 8 -123 5 -43 -3 -87 0 -103 6 -27 10 -28
14 -22 51 4 21 4 48 0 60 -7 21 -84 80 -105 80 -23 0 -120 65 -126 85 -9 28
-34 55 -53 55 -9 0 -61 20 -115 45 -96 43 -166 95 -166 122 0 7 -16 31 -36 53
-29 32 -42 39 -67 37 -27 -2 -34 3 -56 45 -29 52 -57 82 -109 114 -29 18 -40
19 -63 10 -20 -7 -29 -17 -29 -33 0 -15 -10 -27 -35 -39 -19 -9 -35 -24 -35
-33 0 -9 -7 -29 -15 -45 -19 -36 -21 -71 -2 -41 14 23 30 29 70 28 118 -4 118
-4 128 -29 13 -37 11 -91 -6 -124 -15 -28 -16 -29 -87 -26 -43 2 -88 11 -109
21 -35 17 -37 16 -77 -4 -30 -15 -42 -28 -42 -44 0 -12 -9 -37 -20 -55 -18
-28 -20 -50 -20 -178 0 -88 4 -154 11 -166 6 -12 13 -72 14 -135 3 -119 18
-167 67 -220 19 -20 21 -41 29 -280 8 -237 7 -266 -11 -357 -11 -54 -20 -126
-20 -160 -1 -86 -35 -313 -54 -361 -46 -112 -96 -181 -254 -352 -147 -158
-251 -250 -482 -425 -75 -57 -119 -103 -196 -208 -73 -100 -165 -169 -350
-266 -60 -31 -163 -86 -229 -122 -66 -36 -142 -77 -170 -92 -27 -14 -68 -37
-90 -51 -108 -69 -262 -136 -431 -189 -50 -15 -100 -33 -110 -39 -11 -5 -77
-37 -149 -71 -71 -34 -152 -76 -180 -93 l-50 -32 -202 0 -203 0 -29 30 c-16
17 -42 39 -57 50 -16 11 -43 34 -60 50 -18 17 -50 43 -73 59 -22 16 -41 32
-41 37 0 12 -109 91 -121 87 -33 -11 183 -233 284 -291 58 -34 60 -57 12 -102
-50 -48 -93 -60 -168 -46 -46 9 -75 9 -112 1 -27 -6 -68 -15 -90 -19 -22 -4
-54 -15 -72 -24 -21 -11 -56 -17 -98 -17 -44 0 -80 -6 -108 -19 -23 -11 -64
-22 -92 -26 -27 -4 -87 -17 -132 -30 -45 -13 -107 -27 -139 -31 -32 -4 -80
-15 -107 -24 -55 -19 -78 -17 -103 11 -13 14 -14 22 -5 32 14 17 14 40 3 142
-5 44 -7 179 -4 300 l4 220 -27 49 c-22 42 -25 57 -20 97 4 26 12 50 19 52 6
3 24 22 39 44 25 36 26 42 15 74 -6 19 -21 50 -32 69 l-21 35 -5 -107 c-5 -90
-9 -110 -25 -121 -17 -13 -18 -27 -11 -258 7 -233 18 -442 32 -576 6 -57 4
-62 -17 -73 -22 -13 -132 -25 -305 -36 -72 -5 -97 -3 -122 10 -25 13 -64 16
-194 16 -90 0 -224 7 -298 15 -74 9 -200 20 -280 25 -241 15 -296 39 -319 136
-8 32 -15 61 -17 62 -1 2 -16 -6 -33 -19 -27 -20 -36 -21 -93 -13 -35 4 -137
9 -228 11 -91 1 -178 4 -194 5 -24 3 -33 -3 -45 -27 -9 -16 -20 -33 -26 -37
-9 -7 -53 -11 -56 -5 -3 4 -21 382 -21 449 -1 44 4 75 14 90 31 47 34 105 37
588 2 322 5 394 19 440 17 56 22 244 13 510 -5 182 5 775 14 790 4 7 9 37 10
67 1 34 8 60 18 70 14 15 18 15 43 -2 25 -16 26 -21 21 -67 -8 -67 8 -140 38
-168 l23 -22 7 66 c4 36 13 70 21 77 7 6 32 13 54 16 22 3 43 10 46 14 3 5 68
9 145 9 l139 0 0 -25 c0 -13 8 -29 18 -34 11 -6 23 -33 32 -73 l14 -63 7 55
c4 30 8 125 9 210 1 85 5 189 11 230 5 41 13 176 18 300 6 124 16 261 25 305
8 44 20 199 26 345 6 146 21 362 32 480 11 118 24 321 29 450 10 280 25 511
44 715 8 83 19 335 25 560 5 226 17 511 25 635 8 124 17 387 21 585 3 198 10
410 15 470 4 61 13 178 18 260 6 83 15 191 21 240 16 138 38 553 59 1130 6
149 17 329 26 400 8 72 19 249 25 395 23 639 30 767 45 825 14 59 19 103 50
465 8 96 20 216 26 265 5 50 14 178 19 286 5 108 13 214 18 235 6 22 13 95 16
164 4 69 13 152 21 185 10 41 18 163 25 383 10 342 32 662 56 824 8 54 14 152
14 218 0 85 4 131 15 157 8 19 15 51 15 69 0 40 -12 42 -98 18 -72 -19 -260
-82 -287 -94 -11 -6 -49 -21 -85 -34 -36 -13 -96 -38 -133 -55 -38 -17 -81
-31 -95 -31 -54 0 -54 1 -43 196 6 98 13 193 16 209 2 17 12 142 20 280 9 137
18 252 21 256 2 4 9 65 14 136 10 130 31 240 57 302 8 19 19 72 24 119 5 46
14 92 19 102 6 10 10 58 9 107 -1 64 -3 79 -9 56 -10 -42 -27 -63 -46 -56 -11
4 -14 26 -13 97 0 50 4 114 7 141 8 53 -4 185 -17 198 -4 4 -15 -8 -23 -27z
m24 -538 c-9 -9 -12 -7 -12 12 0 19 3 21 12 12 9 -9 9 -15 0 -24z m-75 -275
c-3 -10 -5 -4 -5 12 0 17 2 24 5 18 2 -7 2 -21 0 -30z m-126 -1333 c27 -15 26
-66 -2 -80 -25 -14 -27 -13 -29 25 -5 67 -2 72 31 55z m510 -1026 c7 -9 15
-44 17 -78 3 -48 -1 -74 -18 -113 -29 -67 -59 -94 -112 -100 -94 -11 -180 39
-194 112 -8 44 21 140 51 171 22 22 31 24 133 24 88 0 112 -3 123 -16z m-209
-2956 c42 -52 52 -167 19 -210 -11 -14 -28 -45 -37 -69 -10 -24 -24 -50 -32
-58 -10 -10 -12 -29 -7 -72 7 -61 0 -119 -16 -119 -19 0 -49 41 -49 69 0 15
11 50 25 76 14 26 24 50 21 52 -2 2 -38 8 -80 12 -120 11 -156 48 -156 162 0
54 4 71 25 98 36 50 90 84 143 92 78 12 114 3 144 -33z m-209 -3082 c8 -23 22
-63 32 -91 10 -27 20 -73 22 -101 4 -47 2 -54 -36 -102 -51 -64 -85 -82 -154
-82 -50 0 -58 3 -85 34 -37 43 -56 96 -56 161 0 87 74 194 166 238 46 22 93
-2 111 -57z m15470 -510 c48 -84 87 -158 87 -164 0 -5 -31 -65 -70 -132 -38
-67 -70 -127 -70 -133 0 -7 43 -86 95 -176 l95 -164 -113 -196 -113 -196 -124
0 -124 0 -216 375 -217 375 -204 5 -205 5 161 277 160 278 385 0 385 -1 88
-153z m211 -364 c42 -73 76 -136 76 -139 0 -10 -124 -223 -130 -223 -4 0 -45
67 -92 149 l-86 149 23 38 c12 22 41 72 65 113 34 60 44 71 55 60 6 -8 46 -74
89 -147z m-2344 -169 c0 -12 -184 -296 -318 -492 -293 -428 -556 -769 -953
-1234 l-25 -30 -57 101 -57 101 446 773 c246 425 448 776 451 781 2 4 119 7
259 7 140 0 254 -3 254 -7z m1064 -330 l191 -333 210 0 210 0 55 -98 c30 -53
146 -254 257 -446 151 -261 200 -353 193 -365 -5 -9 -207 -358 -448 -776
l-439 -760 -904 -2 -904 -2 -247 430 -248 431 108 121 c534 603 1128 1417
1492 2047 24 41 48 78 54 83 6 4 60 6 120 5 l108 -3 192 -332z m404 22 c100
-174 182 -318 182 -320 0 -3 -84 -5 -187 -5 l-188 1 -150 261 c-82 144 -165
288 -183 320 l-33 58 188 0 189 0 182 -315z m-15069 -1699 c6 -7 38 -25 71
-40 53 -24 60 -31 67 -64 4 -20 7 -80 6 -132 l-2 -95 -47 -43 c-31 -29 -52
-41 -63 -37 -9 4 -34 9 -56 12 -62 7 -82 22 -106 77 -18 43 -21 63 -17 141 5
92 20 137 59 176 22 22 71 25 88 5z m-332 -573 c-3 -10 -5 -2 -5 17 0 19 2 27
5 18 2 -10 2 -26 0 -35z m421 -13 c2 -14 13 -35 23 -46 l20 -21 -61 -7 c-67
-8 -150 1 -150 16 0 5 17 27 38 49 34 36 41 39 82 37 40 -3 45 -6 48 -28z
m-258 -24 c0 -3 -4 -8 -10 -11 -5 -3 -10 -1 -10 4 0 6 5 11 10 11 6 0 10 -2
10 -4z m-124 -130 c-4 -24 -15 -51 -25 -60 -18 -17 -19 -14 -26 53 -4 38 -4
79 0 90 6 20 8 20 32 -9 22 -26 24 -37 19 -74z m11599 -25 c-191 -181 -811
-700 -838 -701 -5 0 3 19 17 43 14 23 108 185 208 359 l183 318 225 0 c220 0
224 0 205 -19z m1270 -568 c186 -324 339 -590 341 -593 1 -3 -150 -268 -335
-590 l-338 -585 -685 -3 -686 -2 -251 435 c-138 240 -251 439 -251 444 0 5 12
17 28 26 60 39 416 309 567 430 360 289 617 515 955 838 l195 186 61 1 60 0
339 -587z m-12685 81 c0 -8 -5 -12 -10 -9 -6 4 -8 11 -5 16 9 14 15 11 15 -7z
m7610 -214 c0 -5 -4 -10 -10 -10 -5 0 -10 5 -10 10 0 6 5 10 10 10 6 0 10 -4
10 -10z m-157 -57 c38 -11 57 -7 57 13 0 8 5 14 10 14 6 0 10 -10 10 -23 0
-16 -6 -23 -22 -24 -13 -1 -33 -8 -46 -14 -27 -15 -40 -5 -46 36 -2 17 -2 25
1 19 2 -6 18 -15 36 -21z m-15815 0 c-2 -20 -10 -29 -28 -33 -24 -5 -25 -11
-30 -87 -4 -60 -11 -87 -24 -102 -18 -19 -18 -21 3 -47 15 -20 21 -41 21 -80
0 -68 14 -104 40 -104 27 0 30 -59 3 -61 -71 -5 -93 17 -94 95 -2 92 -10 119
-42 134 -36 17 -33 51 5 70 24 11 27 19 33 90 3 42 8 87 11 99 5 25 47 52 82
53 20 0 23 -4 20 -27z m258 19 c23 -15 34 -53 34 -114 0 -66 18 -108 46 -108
9 0 14 -11 14 -30 0 -18 -5 -30 -13 -30 -30 0 -45 -35 -49 -118 -5 -94 -19
-117 -76 -128 -33 -7 -33 -6 -30 27 2 26 8 35 26 37 12 2 22 4 23 5 0 1 4 39
8 85 5 51 14 89 24 100 14 15 14 19 -4 41 -14 17 -19 39 -19 88 0 73 -12 103
-40 103 -15 0 -20 7 -20 25 0 22 4 25 33 25 17 0 37 -4 43 -8z m15512 -128 c9
-18 9 -31 1 -45 -14 -27 -43 -20 -47 11 -2 14 -8 30 -13 37 -7 7 -5 13 3 16
28 12 45 6 56 -19z m-14353 -34 c4 -6 -25 -10 -80 -10 -55 0 -84 4 -80 10 3 6
39 10 80 10 41 0 77 -4 80 -10z m13675 -385 c10 -13 7 -17 -23 -30 -43 -18
-39 -18 -73 -5 -26 10 -26 11 -9 30 22 24 87 27 105 5z m-14707 -32 c-18 -2
-48 -2 -65 0 -18 2 -4 4 32 4 36 0 50 -2 33 -4z m-260 -10 c-24 -2 -62 -2 -85
0 -24 2 -5 4 42 4 47 0 66 -2 43 -4z m-270 -10 c-24 -2 -62 -2 -85 0 -24 2 -5
4 42 4 47 0 66 -2 43 -4z m17707 -262 c5 -11 10 -22 10 -24 0 -3 -35 -25 -77
-50 -453 -263 -1099 -579 -1597 -782 -301 -123 -716 -275 -749 -275 -21 0 -13
56 18 127 19 43 434 768 552 966 l34 57 899 0 c879 0 900 0 910 -19z"/>
<path d="M8492 18500 c0 -19 2 -27 5 -17 2 9 2 25 0 35 -3 9 -5 1 -5 -18z"/>
<path d="M8448 18355 c-3 -16 -2 -38 2 -49 7 -19 8 -19 15 7 4 16 3 38 -2 50
-9 21 -10 20 -15 -8z"/>
<path d="M8410 18194 c0 -21 4 -33 10 -29 6 3 10 19 10 36 0 16 -4 29 -10 29
-5 0 -10 -16 -10 -36z"/>
<path d="M12622 18216 c-1 -11 -9 -27 -17 -36 -9 -10 -18 -35 -22 -56 -3 -22
-16 -55 -30 -75 -22 -34 -23 -40 -12 -83 8 -34 9 -77 0 -171 -12 -139 -14
-228 -5 -262 11 -41 24 -24 24 30 0 28 5 94 10 146 6 52 13 148 16 214 4 85
11 134 25 170 13 33 19 66 16 96 -2 25 -4 37 -5 27z"/>
<path d="M1922 18183 c3 -17 30 -18 376 -21 349 -2 373 -3 368 -20 -11 -35
-86 -423 -115 -598 -66 -388 -107 -710 -140 -1086 -41 -456 -46 -594 -46
-1168 0 -571 7 -738 46 -1205 204 -2455 1078 -4806 2532 -6813 96 -132 267
-356 402 -526 6 -7 35 -16 65 -20 30 -4 60 -10 67 -14 19 -12 33 -60 33 -116
0 -90 -17 -86 388 -86 194 0 352 3 352 6 0 4 -35 45 -78 93 -380 420 -833
1016 -1189 1566 -1162 1796 -1862 3852 -2037 5985 -35 422 -40 576 -40 1145 0
606 7 763 55 1245 51 512 145 1106 245 1538 l16 72 124 0 c117 0 124 1 124 20
0 20 -7 20 -776 20 -733 0 -775 -1 -772 -17z"/>
<path d="M12397 18166 c-4 -15 -6 -31 -2 -34 10 -10 16 6 13 35 l-3 28 -8 -29z"/>
<path d="M8370 18030 c0 -22 4 -40 9 -40 11 0 21 49 14 67 -10 27 -23 12 -23
-27z"/>
<path d="M11541 18034 c0 -11 3 -14 6 -6 3 7 2 16 -1 19 -3 4 -6 -2 -5 -13z"/>
<path d="M8342 17900 c0 -19 2 -27 5 -17 2 9 2 25 0 35 -3 9 -5 1 -5 -18z"/>
<path d="M8260 17699 c0 -5 5 -7 10 -4 6 3 10 8 10 11 0 2 -4 4 -10 4 -5 0
-10 -5 -10 -11z"/>
<path d="M8225 17633 c-4 -18 -15 -33 -26 -36 -12 -3 -19 -14 -19 -30 0 -14
-7 -27 -15 -31 -8 -3 -15 -16 -15 -28 0 -23 0 -23 24 4 33 34 69 112 63 135
-3 13 -6 9 -12 -14z"/>
<path d="M9080 17496 c0 -30 15 -42 24 -20 10 27 7 44 -9 44 -9 0 -15 -9 -15
-24z"/>
<path d="M8110 17450 c0 -11 5 -20 10 -20 6 0 10 9 10 20 0 11 -4 20 -10 20
-5 0 -10 -9 -10 -20z"/>
<path d="M8070 17381 c0 -20 -6 -30 -20 -34 -12 -3 -20 -14 -20 -26 0 -12 -6
-21 -15 -21 -8 0 -15 -9 -15 -20 0 -11 -9 -29 -20 -40 -34 -34 -20 -72 19 -50
23 12 35 43 33 81 -1 15 4 29 12 32 29 11 61 107 36 107 -5 0 -10 -13 -10 -29z"/>
<path d="M12850 17373 c0 -13 4 -23 9 -23 4 0 11 -33 14 -72 3 -40 8 -81 12
-90 10 -25 45 -23 45 2 0 23 -41 153 -50 160 -4 3 -12 14 -18 25 -11 19 -11
19 -12 -2z"/>
<path d="M9117 17373 c-4 -3 -7 -35 -7 -70 0 -61 1 -63 25 -63 17 0 25 5 25
18 -1 28 -36 122 -43 115z"/>
<path d="M13482 17255 l1 -100 8 68 c6 41 5 82 0 100 -7 25 -9 8 -9 -68z"/>
<path d="M28695 17319 c-4 -11 -21 -27 -38 -34 l-32 -13 27 -7 c43 -11 58 0
58 40 0 40 -6 45 -15 14z"/>
<path d="M28830 17307 c0 -18 -29 -44 -55 -49 -17 -4 -16 -6 7 -12 42 -12 58
-1 58 39 0 19 -2 35 -5 35 -3 0 -5 -6 -5 -13z"/>
<path d="M29102 17308 c-7 -7 -12 -26 -11 -42 l1 -31 9 30 c5 16 16 36 26 42
14 11 14 13 2 13 -8 0 -20 -5 -27 -12z"/>
<path d="M28947 17267 c-9 -15 -24 -27 -33 -27 -8 0 -12 -4 -9 -10 9 -15 41
-12 55 4 6 8 10 25 8 38 -3 22 -3 22 -21 -5z"/>
<path d="M29338 17283 c7 -3 16 -2 19 1 4 3 -2 6 -13 5 -11 0 -14 -3 -6 -6z"/>
<path d="M29518 17253 c7 -3 16 -2 19 1 4 3 -2 6 -13 5 -11 0 -14 -3 -6 -6z"/>
<path d="M29790 17193 c0 -43 -15 -80 -38 -92 -14 -7 -94 2 -298 34 -153 25
-287 47 -296 49 -10 2 -18 0 -18 -4 0 -5 8 -11 18 -14 32 -10 561 -96 592 -96
60 0 90 69 55 130 l-14 25 -1 -32z"/>
<path d="M9141 17170 c-7 -23 -6 -40 4 -71 8 -23 16 -51 16 -63 1 -11 5 8 9
44 12 102 -5 157 -29 90z"/>
<path d="M28368 17160 c-56 -30 -88 -78 -99 -152 -8 -60 -34 -602 -46 -973
l-5 -170 29 -55 c37 -71 98 -113 185 -129 56 -10 319 -53 923 -151 526 -86
620 -100 656 -100 78 0 159 63 178 138 10 37 23 271 41 727 5 138 13 284 16
327 12 157 -57 271 -187 308 l-27 8 -6 -66 c-6 -63 -11 -177 -36 -757 -15
-341 -17 -370 -33 -402 -22 -41 -57 -70 -106 -88 -40 -14 -54 -14 -165 5 -298
48 -747 121 -926 150 -107 17 -209 35 -227 41 -17 6 -47 27 -66 48 -59 65 -61
83 -48 371 7 140 16 343 21 450 5 107 12 261 16 343 l7 147 -29 0 c-16 -1 -46
-10 -66 -20z"/>
<path d="M7923 17143 c-4 -10 -15 -24 -25 -31 -10 -7 -18 -20 -18 -28 0 -8 -6
-17 -14 -20 -8 -3 -20 -19 -26 -35 -7 -16 -16 -29 -21 -29 -5 0 -11 -11 -15
-25 -3 -13 -12 -29 -20 -36 -8 -6 -14 -21 -14 -34 0 -12 -9 -30 -20 -40 -11
-10 -20 -27 -20 -37 0 -16 -18 -57 -52 -118 -27 -48 -29 -71 -23 -200 3 -74 8
-157 12 -185 l6 -50 13 35 c7 19 13 49 13 67 2 55 9 63 61 63 40 0 52 -5 79
-32 17 -18 37 -47 43 -65 10 -26 18 -33 39 -33 15 0 32 6 38 14 6 7 22 11 36
8 38 -7 41 21 8 67 -15 23 -35 43 -44 46 -23 8 -77 78 -85 111 -6 25 -33 82
-63 134 -11 19 -31 83 -31 99 0 13 2 16 53 76 77 92 89 114 92 165 2 28 10 61
19 75 9 13 16 31 16 40 0 21 -29 19 -37 -2z"/>
<path d="M29994 17065 c0 -49 1 -71 3 -48 2 23 2 64 0 90 -2 26 -3 8 -3 -42z"/>
<path d="M12436 17084 c-9 -35 3 -94 19 -94 8 0 18 -21 24 -52 l10 -53 -4 49
c-3 27 -5 77 -5 112 0 56 -2 64 -19 64 -12 0 -21 -9 -25 -26z"/>
<path d="M13448 17097 c-5 -10 -8 -49 -7 -85 l1 -67 9 45 c11 53 8 135 -3 107z"/>
<path d="M17136 17005 c-4 -11 1 -15 21 -15 14 0 24 1 22 3 -2 1 -11 8 -20 15
-14 10 -18 10 -23 -3z"/>
<path d="M13030 16968 c0 -63 17 -80 63 -62 13 5 13 9 -1 35 -10 16 -21 29
-26 29 -5 0 -15 8 -22 18 -12 15 -13 13 -14 -20z"/>
<path d="M13406 16905 c-9 -25 -7 -133 3 -139 5 -3 11 4 15 17 15 57 -1 166
-18 122z"/>
<path d="M29837 16741 c-5 -28 -18 -53 -37 -72 -33 -33 -25 -39 13 -9 26 21
42 71 35 107 -2 10 -7 -2 -11 -26z"/>
<path d="M13246 16633 c11 -45 24 -51 24 -10 0 26 -4 37 -15 37 -12 0 -14 -7
-9 -27z"/>
<path d="M12813 16555 c0 -27 2 -38 4 -22 2 15 2 37 0 50 -2 12 -4 0 -4 -28z"/>
<path d="M29267 16403 c-4 -32 -9 -132 -13 -223 -4 -91 -11 -174 -17 -185 -10
-19 -9 -19 10 -2 18 15 21 35 27 175 4 86 9 187 13 225 4 42 2 67 -4 67 -6 0
-13 -26 -16 -57z"/>
<path d="M29154 16418 c-1 -18 -3 -111 -4 -206 -2 -139 -5 -176 -17 -188 -17
-17 -24 -16 -251 22 -139 23 -190 29 -181 20 7 -7 376 -66 413 -66 56 0 60 14
67 214 5 165 -1 236 -19 236 -4 0 -8 -15 -8 -32z"/>
<path d="M29027 16358 c-4 -15 -20 -34 -35 -42 l-27 -15 32 -1 c26 0 34 5 39
24 3 14 4 33 2 43 -3 14 -6 12 -11 -9z"/>
<path d="M12436 16339 c-4 -13 -15 -118 -37 -334 -5 -55 -16 -120 -24 -144 -8
-25 -15 -63 -15 -86 0 -23 -9 -91 -20 -151 -10 -60 -22 -140 -26 -179 -3 -38
-11 -88 -16 -110 -23 -91 -42 -227 -45 -330 l-4 -110 22 40 c23 43 52 165 74
315 8 52 21 131 29 175 8 44 15 127 16 184 0 57 7 140 15 185 25 141 33 180
44 221 7 22 14 101 18 175 5 118 4 137 -10 149 -14 11 -17 11 -21 0z"/>
<path d="M10017 16334 c-8 -8 23 -64 36 -64 4 0 7 15 5 32 -3 31 -25 48 -41
32z"/>
<path d="M13371 16307 c0 -16 -6 -48 -12 -73 -12 -48 -4 -91 42 -222 24 -66
24 -80 0 -134 -18 -42 -18 -45 -1 -78 12 -24 15 -40 9 -52 -12 -23 -11 -105 1
-113 6 -4 10 6 10 22 0 15 7 41 15 57 19 36 19 56 0 56 -26 0 -16 31 24 75 62
67 66 153 9 193 -14 11 -18 27 -18 83 0 77 -18 132 -48 148 -12 6 -23 23 -25
38 l-4 28 -2 -28z"/>
<path d="M8032 16273 c2 -20 9 -29 26 -31 27 -4 29 18 4 41 -26 24 -34 21 -30
-10z"/>
<path d="M10076 16198 c-9 -36 5 -132 21 -145 13 -10 14 -19 4 -57 -13 -54
-15 -168 -2 -182 5 -5 7 -62 4 -126 -5 -106 -8 -118 -24 -118 -11 0 -19 -4
-19 -9 0 -5 -15 -24 -34 -42 -30 -27 -35 -40 -40 -93 -4 -34 -9 -86 -12 -118
-3 -31 -1 -65 5 -75 5 -11 15 -68 21 -129 6 -60 17 -129 25 -154 34 -106 47
-227 51 -446 2 -122 8 -234 14 -249 5 -14 10 -46 10 -69 0 -36 -4 -45 -22 -49
-12 -3 -29 -2 -39 4 -10 5 -33 9 -53 9 -46 0 -185 73 -239 126 -12 12 -35 28
-51 36 -15 8 -69 55 -120 105 -84 84 -96 92 -163 112 -39 11 -78 21 -86 21 -8
0 -29 -17 -47 -37 -17 -21 -42 -50 -56 -64 -28 -30 -30 -54 -6 -90 9 -15 26
-39 36 -55 11 -16 39 -47 63 -70 33 -31 43 -48 43 -73 0 -30 -9 -42 -54 -74
-10 -7 -20 -27 -22 -44 -5 -41 45 -93 90 -93 17 -1 65 -7 106 -16 41 -8 100
-19 130 -25 30 -5 59 -14 66 -20 7 -6 10 -33 8 -72 -3 -59 -5 -64 -46 -100
-132 -116 -146 -140 -98 -180 15 -13 43 -29 61 -36 70 -26 125 -57 167 -97 24
-23 44 -46 44 -50 1 -15 9 -36 39 -101 38 -80 37 -125 -3 -240 l-32 -92 17
-48 c9 -26 17 -58 17 -71 0 -23 -35 -86 -76 -135 -16 -18 -24 -41 -24 -64 0
-31 8 -44 56 -89 l56 -52 -7 -95 c-7 -93 -2 -126 28 -197 6 -14 12 -86 13
-160 1 -83 9 -162 19 -205 12 -54 15 -109 13 -241 l-3 -171 29 -62 c24 -48 34
-61 53 -61 37 0 59 48 107 235 7 28 25 75 40 105 27 55 55 129 101 268 13 40
33 80 43 90 20 16 52 144 52 203 0 14 9 42 20 64 11 22 20 45 20 51 0 14 38
26 45 14 3 -5 10 -60 17 -122 10 -104 35 -188 56 -188 4 0 18 9 32 19 21 17
25 29 28 93 4 99 8 106 32 80 13 -14 20 -35 20 -62 0 -62 51 -156 95 -174 29
-12 35 -20 35 -45 0 -16 5 -31 11 -33 6 -2 9 -13 6 -23 -5 -19 -5 -19 -12 3
-4 12 -13 22 -20 22 -21 0 -27 -48 -19 -177 5 -94 10 -123 20 -123 11 0 14 20
14 84 0 47 5 88 10 91 6 4 10 -27 10 -84 0 -59 -4 -91 -11 -91 -13 0 -2 -99
12 -115 5 -5 9 -19 9 -30 0 -12 9 -30 20 -40 12 -11 20 -31 20 -52 0 -25 9
-43 39 -74 22 -22 41 -52 43 -67 3 -24 7 -27 39 -26 27 1 36 -3 35 -14 -1 -16
57 -37 78 -29 19 8 47 105 56 195 6 60 15 94 34 126 31 53 38 154 14 201 -10
19 -18 73 -22 145 -4 63 -14 140 -22 170 -13 50 -20 96 -43 275 -5 33 -20 94
-35 136 -14 41 -26 84 -26 93 0 10 -11 39 -24 65 -43 84 -94 263 -112 391 -10
69 -23 134 -31 146 -35 55 -45 114 -72 434 -8 94 -30 170 -50 170 -16 0 -13
42 4 64 7 10 17 44 21 75 8 67 26 106 57 122 12 6 34 23 49 37 23 21 33 24 66
18 36 -5 40 -4 46 19 5 19 13 25 34 25 21 0 44 -17 94 -67 l67 -68 4 -108 c3
-97 6 -109 26 -123 12 -9 29 -32 39 -51 17 -37 27 -40 114 -34 18 1 58 68 58
96 0 9 -12 28 -26 43 -14 15 -32 41 -40 59 -8 18 -28 48 -45 67 -27 32 -30 40
-24 76 4 22 11 40 16 40 5 0 9 4 9 9 0 5 -17 11 -38 15 -31 5 -41 12 -55 41
-9 20 -17 41 -17 47 0 7 -18 30 -39 53 -34 34 -42 50 -50 103 -10 61 -42 130
-95 201 -14 19 -29 51 -32 70 -4 20 -20 48 -35 63 -15 16 -33 44 -39 64 -7 19
-27 58 -46 87 -19 28 -37 67 -40 87 -4 19 -20 50 -35 68 -16 18 -32 45 -35 60
-16 68 -92 242 -140 323 -33 55 -64 112 -148 274 -72 138 -147 259 -182 293
-18 18 -38 50 -44 71 -5 21 -17 44 -24 50 -8 7 -17 29 -21 49 -4 26 -15 43
-35 57 -29 19 -35 32 -32 65 3 29 -10 110 -18 110 -4 0 -10 -10 -14 -22z m134
-480 c0 -16 -3 -19 -11 -11 -6 6 -8 16 -5 22 11 17 16 13 16 -11z m569 -1119
c29 -85 2 -178 -46 -159 -27 11 -31 51 -8 70 22 18 19 26 -15 40 -16 7 -30 18
-30 24 0 14 57 53 82 55 3 1 11 -13 17 -30z m-140 -900 l24 -20 -21 -22 c-11
-12 -22 -35 -24 -52 -2 -19 -9 -30 -18 -30 -11 0 -15 13 -15 53 0 55 9 92 22
92 4 -1 19 -10 32 -21z m-124 -632 c11 -3 32 -8 48 -11 22 -5 27 -12 27 -35 0
-67 -74 -85 -109 -27 -27 43 -29 89 -3 82 9 -2 26 -7 37 -9z"/>
<path d="M12755 16024 c-18 -13 -21 -30 -25 -140 -3 -70 -2 -131 2 -138 4 -6
8 -7 9 -1 0 6 2 31 4 57 2 27 11 63 20 82 11 22 15 54 13 94 -3 59 -4 60 -23
46z"/>
<path d="M13547 15816 c-7 -19 18 -42 28 -26 8 13 -1 40 -14 40 -5 0 -11 -6
-14 -14z"/>
<path d="M12703 15635 c0 -22 2 -30 4 -17 2 12 2 30 0 40 -3 9 -5 -1 -4 -23z"/>
<path d="M8370 15505 c0 -43 1 -45 30 -45 26 0 30 3 29 28 0 30 -17 77 -18 53
-1 -12 -4 -12 -13 -3 -21 21 -28 13 -28 -33z"/>
<path d="M28990 15476 c0 -7 6 -18 13 -23 6 -6 118 -27 247 -47 129 -20 247
-39 263 -42 22 -5 27 -2 27 15 0 13 -8 22 -22 26 -24 5 -513 85 -523 85 -3 0
-5 -6 -5 -14z"/>
<path d="M28317 15429 c-29 -15 -38 -25 -34 -40 4 -16 0 -19 -32 -19 -43 0
-105 -30 -109 -54 -2 -9 6 -20 20 -25 16 -6 3 -7 -39 -4 -52 5 -67 2 -97 -17
-60 -36 -48 -46 82 -63 112 -16 195 -34 161 -36 -13 -1 -105 -47 -179 -89 -22
-13 -24 -39 -3 -46 28 -8 569 -96 595 -96 13 0 65 21 116 47 82 42 92 51 89
71 -4 22 -3 23 37 16 22 -5 56 -8 74 -7 17 1 32 -2 32 -6 0 -10 177 -34 190
-26 5 3 10 2 10 -2 0 -9 121 -33 165 -33 30 0 95 38 95 55 0 7 -6 16 -12 19
-7 3 3 4 22 2 21 -2 54 4 83 17 42 17 48 23 44 44 -4 22 -2 23 26 17 38 -8
129 32 125 55 -4 19 -117 44 -170 38 -20 -3 -38 -1 -40 5 -5 14 -75 28 -145
29 -35 0 -63 4 -63 9 0 10 -165 34 -179 26 -6 -4 -21 0 -34 9 -16 10 -52 16
-108 18 -46 1 -88 7 -94 13 -13 14 -154 36 -182 28 -13 -4 -23 -2 -23 4 0 11
-153 37 -174 29 -8 -3 -28 0 -43 8 -15 7 -59 16 -98 19 -59 5 -76 3 -108 -15z
m40 -65 c-3 -3 -12 -4 -19 -1 -8 3 -5 6 6 6 11 1 17 -2 13 -5z m133 -16 c0 -4
-15 -8 -34 -8 -19 0 -41 -3 -49 -6 -8 -3 -17 1 -20 9 -4 11 6 14 49 13 30 0
54 -4 54 -8z m47 -14 c-3 -3 -12 -4 -19 -1 -8 3 -5 6 6 6 11 1 17 -2 13 -5z
m153 -16 c0 -4 10 -8 23 -10 12 -2 -7 -3 -43 -2 -36 1 -76 6 -90 12 -20 7 -11
9 42 8 38 0 68 -4 68 -8z m-467 -35 c-7 -2 -19 -2 -25 0 -7 3 -2 5 12 5 14 0
19 -2 13 -5z m79 -24 c-29 -4 -50 -2 -54 5 -5 7 9 13 40 16 63 7 77 -13 14
-21z m604 19 c5 -8 -2 -9 -25 -5 -18 4 -41 2 -51 -3 -13 -7 -19 -6 -24 5 -4
12 4 15 44 15 27 0 52 -5 56 -12z m-499 -24 c-3 -3 -12 -4 -19 -1 -8 3 -5 6 6
6 11 1 17 -2 13 -5z m703 -6 c0 -4 -15 -8 -34 -8 -19 0 -41 -3 -49 -6 -8 -3
-17 1 -20 9 -4 11 6 14 49 13 30 0 54 -4 54 -8z m-560 -9 c0 -13 -85 -15 -109
-3 -20 11 -15 12 43 11 36 -1 66 -5 66 -8z m37 -15 c-3 -3 -12 -4 -19 -1 -8 3
-5 6 6 6 11 1 17 -2 13 -5z m727 -9 c2 -6 -17 -10 -45 -11 -27 0 -49 3 -49 7
0 4 -8 9 -17 11 -10 2 10 4 44 3 35 0 64 -4 67 -10z m-677 -1 c-3 -3 -12 -4
-19 -1 -8 3 -5 6 6 6 11 1 17 -2 13 -5z m143 -22 c3 -2 -16 -1 -41 3 -30 4
-49 3 -53 -4 -10 -16 -26 -14 -26 3 0 10 14 16 43 18 36 3 52 -2 77 -20z m617
2 c-3 -3 -12 -4 -19 -1 -8 3 -5 6 6 6 11 1 17 -2 13 -5z m127 -13 c3 -5 -16
-11 -44 -13 -33 -2 -51 1 -55 10 -5 14 90 18 99 3z m-559 -11 c4 -6 -8 -10
-29 -10 -19 0 -41 -3 -49 -6 -8 -3 -17 2 -20 10 -5 13 2 16 43 16 27 0 52 -4
55 -10z m-555 -4 c0 -11 -19 -15 -25 -6 -3 5 1 10 9 10 9 0 16 -2 16 -4z
m1167 -2 c-3 -3 -12 -4 -19 -1 -8 3 -5 6 6 6 11 1 17 -2 13 -5z m-403 -29 c5
-13 -91 -12 -104 1 -7 7 9 10 45 10 30 -1 56 -6 59 -11z m-564 -5 c0 -5 -8
-10 -17 -10 -15 0 -16 2 -3 10 19 12 20 12 20 0z m778 -28 c11 -10 5 -12 -31
-11 -24 1 -49 -1 -56 -5 -7 -5 -17 -1 -24 7 -7 8 -21 17 -32 19 -11 2 14 4 55
4 46 -1 80 -6 88 -14z m-571 -8 c-3 -3 -12 -4 -19 -1 -8 3 -5 6 6 6 11 1 17
-2 13 -5z m626 -11 c-7 -2 -19 -2 -25 0 -7 3 -2 5 12 5 14 0 19 -2 13 -5z"/>
<path d="M12660 15421 c0 -25 6 -27 13 -6 4 8 2 17 -3 20 -6 4 -10 -3 -10 -14z"/>
<path d="M12622 15140 c0 -19 2 -27 5 -17 2 9 2 25 0 35 -3 9 -5 1 -5 -18z"/>
<path d="M12592 14990 c0 -19 2 -27 5 -17 2 9 2 25 0 35 -3 9 -5 1 -5 -18z"/>
<path d="M12580 14869 c0 -17 4 -28 10 -24 6 3 10 17 10 31 0 13 -4 24 -10 24
-5 0 -10 -14 -10 -31z"/>
<path d="M9040 14814 c0 -15 43 -64 56 -64 6 0 5 46 -2 64 -8 22 -54 21 -54 0z"/>
<path d="M12553 14690 c0 -25 2 -35 4 -22 2 12 2 32 0 45 -2 12 -4 2 -4 -23z"/>
<path d="M9141 14712 c-1 -15 43 -62 57 -62 16 0 24 33 10 42 -7 4 -23 8 -35
8 -12 0 -24 6 -26 13 -4 9 -6 9 -6 -1z"/>
<path d="M7651 14554 c-6 -22 -11 -64 -11 -94 -1 -30 -7 -66 -15 -80 -8 -14
-14 -42 -15 -63 0 -21 -7 -54 -15 -74 -9 -21 -18 -85 -22 -154 l-6 -117 37
-38 c20 -20 36 -43 36 -51 0 -7 8 -21 18 -31 21 -23 39 -49 55 -82 11 -24 21
-38 57 -78 13 -16 39 -70 68 -143 6 -15 6 -32 1 -40 -4 -8 -11 -38 -15 -69 -4
-30 -13 -60 -20 -68 -8 -8 -14 -35 -14 -63 0 -36 -4 -49 -14 -49 -8 0 -18 -9
-21 -20 -3 -11 -15 -25 -26 -30 -10 -6 -19 -17 -19 -24 0 -7 -9 -21 -20 -31
-11 -10 -20 -29 -20 -42 l0 -23 -440 0 c-303 0 -440 -3 -440 -11 0 -17 21
-103 31 -124 8 -18 26 -77 80 -255 10 -36 25 -78 33 -95 8 -16 18 -43 22 -60
4 -16 20 -64 36 -105 16 -41 41 -106 55 -145 95 -253 293 -688 427 -940 188
-351 424 -744 433 -719 5 15 -14 64 -25 64 -14 0 -69 129 -77 180 -4 25 -13
52 -20 60 -7 8 -15 41 -18 73 -3 32 -12 66 -19 74 -8 10 -13 44 -13 89 -1 57
-5 77 -20 94 -14 15 -21 43 -26 99 -4 51 -14 88 -28 111 -16 27 -21 51 -21
109 0 54 -4 79 -16 92 -9 10 -19 45 -23 78 -4 32 -13 66 -20 75 -7 9 -11 23
-7 32 7 19 -17 69 -51 106 -15 16 -22 31 -18 39 5 6 7 48 6 91 -1 59 3 83 14
94 8 9 15 32 15 53 0 26 7 44 21 57 16 14 20 28 17 60 -2 33 1 45 15 54 16 9
18 19 12 60 -6 42 -4 50 15 63 17 12 21 23 19 62 -2 40 1 50 21 65 23 17 24
24 25 122 0 98 1 103 22 106 28 4 48 60 39 112 -4 28 -2 39 9 44 8 3 18 23 21
45 5 30 11 41 27 43 15 2 23 13 28 37 9 45 29 57 51 31 14 -17 18 -18 25 -6 7
13 12 16 29 16 3 0 -7 11 -22 24 l-28 23 24 8 c18 6 27 2 39 -14 21 -27 46
-10 30 20 -7 14 -5 26 7 44 17 26 43 32 74 15 24 -13 54 31 46 69 -19 92 -22
83 41 155 33 39 77 78 103 91 25 13 53 32 63 42 17 19 16 20 -20 36 -109 47
-261 97 -294 97 -27 0 -41 6 -52 23 l-15 22 -19 -24 c-20 -25 -43 -22 -43 5 0
19 -26 18 -34 -1 -6 -18 -27 -20 -43 -4 -12 12 11 69 28 69 12 0 12 27 0 35
-5 3 -16 -2 -24 -10 -9 -8 -26 -15 -38 -15 l-22 0 20 23 21 22 -29 25 c-32 27
-36 48 -15 89 15 28 25 148 14 166 -4 6 -9 48 -13 93 -5 76 -43 212 -65 236
-5 4 -13 -9 -19 -30z m-14 -466 c-3 -8 -6 -5 -6 6 -1 11 2 17 5 13 3 -3 4 -12
1 -19z m83 -188 c0 -5 -2 -10 -4 -10 -3 0 -8 5 -11 10 -3 6 -1 10 4 10 6 0 11
-4 11 -10z m137 -262 c-3 -8 -6 -5 -6 6 -1 11 2 17 5 13 3 -3 4 -12 1 -19z"/>
<path d="M12514 14435 c0 -49 1 -71 3 -48 2 23 2 64 0 90 -2 26 -3 8 -3 -42z"/>
<path d="M12157 14332 c-16 -17 -19 -46 -23 -228 -3 -115 -1 -245 4 -289 l9
-80 2 60 c0 33 8 158 17 277 8 120 14 232 12 249 -3 31 -3 31 -21 11z"/>
<path d="M13113 14280 c0 -25 2 -35 4 -22 2 12 2 32 0 45 -2 12 -4 2 -4 -23z"/>
<path d="M13239 14258 c-1 -7 -3 -29 -4 -48 -1 -19 -7 -59 -13 -89 -14 -63
-16 -640 -2 -711 30 -165 35 -178 64 -157 14 11 17 28 17 107 0 52 -5 111 -10
130 -7 20 -12 146 -12 300 -2 330 -10 472 -26 478 -7 2 -14 -2 -14 -10z"/>
<path d="M13109 14198 c-6 -94 -4 -607 2 -623 4 -11 8 130 8 313 1 182 -1 332
-4 332 -3 0 -6 -10 -6 -22z"/>
<path d="M21004 13968 c-8 -34 -8 -48 2 -108 5 -33 7 -34 20 -15 18 24 18 114
0 138 -13 17 -15 16 -22 -15z"/>
<path d="M20965 13516 c-7 -61 3 -196 15 -196 27 0 40 157 19 219 -16 45 -26
38 -34 -23z"/>
<path d="M22117 13173 c-12 -11 -8 -23 8 -23 8 0 15 7 15 15 0 16 -12 20 -23
8z"/>
<path d="M22046 13131 c-4 -7 -5 -15 -2 -18 9 -9 19 4 14 18 -4 11 -6 11 -12
0z"/>
<path d="M21006 12880 c-4 -116 -11 -236 -17 -268 -5 -31 -13 -107 -19 -169
-5 -62 -14 -122 -21 -135 -9 -16 -9 -51 -3 -132 5 -61 8 -345 7 -631 -2 -440
-6 -548 -23 -705 -11 -102 -23 -293 -28 -425 -8 -231 -9 -242 -35 -296 -27
-56 -27 -58 -21 -211 6 -135 5 -157 -11 -187 -10 -19 -21 -72 -25 -120 -4 -47
-15 -100 -24 -116 -8 -17 -22 -64 -31 -104 -8 -40 -18 -78 -22 -84 -4 -6 -10
-45 -14 -86 -20 -203 -20 -221 6 -221 6 0 22 -9 34 -19 16 -14 32 -18 55 -14
38 6 96 -20 96 -43 0 -8 -6 -22 -14 -30 -18 -17 -10 -51 15 -65 11 -5 19 -16
19 -24 0 -22 20 -28 39 -11 13 12 20 13 29 4 9 -9 12 -9 12 1 0 7 5 9 10 6 6
-3 10 -16 10 -28 0 -14 11 -29 29 -40 29 -17 30 -17 49 10 l20 27 41 -18 c35
-16 45 -17 73 -6 18 7 38 18 43 25 6 6 36 30 68 53 50 38 57 47 57 77 0 22 7
42 19 53 65 58 91 85 91 92 0 5 20 18 45 29 25 11 63 37 83 58 33 34 41 38 82
35 90 -7 140 16 140 63 0 12 7 25 15 29 22 8 18 31 -7 49 -23 16 -23 16 10 16
20 1 35 -5 38 -14 3 -8 15 -17 27 -21 12 -4 27 -13 35 -20 7 -8 22 -14 32 -14
10 0 22 -5 25 -10 4 -6 27 -22 53 -35 26 -14 67 -41 92 -60 25 -19 57 -44 72
-55 14 -11 33 -20 41 -20 7 0 24 -9 37 -20 13 -11 28 -20 35 -20 18 0 107 -92
98 -101 -5 -5 -54 -4 -109 3 -86 10 -102 15 -110 33 -5 11 -20 21 -36 23 -33
4 -53 -27 -44 -69 4 -23 -1 -34 -32 -63 -20 -20 -50 -41 -67 -48 -51 -21 -75
-48 -75 -85 0 -18 -4 -32 -9 -30 -5 1 -24 -11 -42 -28 -24 -21 -48 -32 -79
-35 -31 -4 -46 -10 -48 -22 -2 -12 5 -17 30 -20 28 -2 34 -7 36 -30 3 -21 -6
-35 -35 -62 -44 -41 -130 -89 -144 -81 -5 4 -12 24 -15 46 -6 35 -10 39 -35
39 -23 0 -29 -4 -29 -22 0 -12 7 -29 16 -39 22 -25 10 -39 -34 -39 -25 -1 -46
-9 -66 -26 -26 -23 -27 -26 -12 -43 19 -20 12 -31 -19 -31 -32 0 -53 -27 -34
-44 19 -18 147 -39 238 -40 69 -1 75 -3 100 -32 17 -20 39 -34 63 -38 48 -9
53 -18 28 -58 -40 -66 -15 -110 40 -69 34 25 55 26 94 6 43 -22 74 -19 78 7 3
23 28 34 53 24 11 -4 12 -13 4 -41 -9 -32 -8 -38 13 -56 13 -11 35 -26 51 -34
23 -13 27 -22 27 -60 0 -41 -18 -75 -40 -75 -16 0 2 -36 41 -79 21 -25 39 -48
39 -53 0 -5 15 -41 34 -81 128 -272 39 -589 -198 -701 -55 -26 -193 -56 -259
-56 -87 0 -255 126 -324 245 -52 88 -83 188 -83 266 0 100 -8 129 -36 129 -42
0 -56 -25 -48 -91 8 -74 0 -111 -24 -102 -19 7 -120 108 -160 161 -26 33 -88
72 -117 72 -18 0 -20 -32 -3 -63 6 -12 36 -53 67 -90 112 -137 155 -200 219
-322 33 -61 82 -175 82 -188 0 -18 52 -72 86 -90 16 -9 54 -45 84 -81 30 -36
60 -65 66 -65 21 -2 49 -44 69 -104 25 -76 42 -82 95 -33 22 20 42 36 45 36
15 0 49 -94 54 -150 3 -36 11 -64 16 -63 6 2 11 31 13 66 2 48 -1 67 -13 77
-12 10 -15 40 -15 166 0 111 3 155 13 161 6 4 63 9 124 10 109 2 114 3 138 29
14 15 25 30 25 35 0 4 16 28 35 53 19 25 47 69 62 98 14 29 47 80 73 113 62
81 114 162 134 209 15 37 15 39 -6 69 -13 18 -31 40 -41 50 -21 21 -15 53 12
77 24 21 61 96 61 124 0 13 6 29 14 35 7 6 16 25 20 42 3 17 15 42 26 56 11
14 20 33 20 42 0 9 6 25 14 36 7 11 16 34 20 50 4 17 13 44 20 60 8 17 23 51
35 76 12 25 21 51 21 58 0 6 9 28 20 48 11 21 20 45 20 53 0 9 6 24 14 35 7
11 17 31 21 45 8 25 105 155 180 240 22 25 49 59 60 74 11 16 35 45 53 65 18
20 40 48 48 63 14 26 13 28 -14 42 -15 8 -56 19 -90 26 -59 10 -91 21 -179 61
-23 10 -47 19 -52 19 -6 0 -44 16 -85 35 -41 19 -77 35 -80 35 -3 0 -39 16
-80 35 -41 19 -80 35 -86 35 -6 0 -13 6 -16 14 -3 8 -20 17 -37 20 -18 4 -50
22 -72 41 -22 19 -44 35 -49 35 -5 0 -27 15 -50 33 -23 18 -53 38 -68 45 -16
6 -28 16 -28 22 0 5 -6 10 -14 10 -7 0 -33 16 -57 35 -24 19 -49 35 -55 35 -6
0 -22 8 -35 19 -13 10 -35 22 -49 26 -14 4 -41 20 -61 36 -20 16 -48 33 -63
39 -15 5 -47 23 -70 39 -24 17 -55 33 -69 36 -14 4 -31 13 -38 21 -6 8 -15 14
-20 14 -4 0 -45 17 -91 39 -96 44 -177 66 -210 55 -13 -4 -41 -22 -62 -40 -22
-19 -43 -34 -47 -34 -5 0 -37 28 -71 62 l-63 62 0 96 c-1 91 1 98 42 185 23
50 57 113 76 140 108 165 107 160 117 312 5 76 14 163 19 194 10 53 9 58 -24
125 -19 38 -35 81 -35 95 0 38 28 125 45 139 8 7 15 23 15 36 0 13 9 29 20 36
11 7 20 22 20 34 0 12 6 27 14 33 8 7 18 26 22 44 6 29 68 154 112 227 20 32
101 125 205 233 l57 61 0 63 c0 35 -6 76 -14 91 -7 15 -17 53 -20 85 -4 32
-14 70 -22 85 -7 15 -14 41 -14 57 0 17 -7 43 -15 59 -9 16 -20 63 -26 104 -8
60 -8 81 4 111 8 20 12 51 10 69 -4 22 0 39 11 51 9 9 18 33 22 52 6 37 44
122 57 127 4 2 7 10 7 17 0 8 11 27 25 42 40 46 45 52 45 60 0 11 53 87 67 96
7 4 13 15 13 24 0 9 7 24 15 33 25 28 26 180 0 180 -8 0 -15 9 -15 20 0 20 -7
20 -488 20 l-489 0 -7 -210z m181 -3516 c4 -10 -2 -23 -15 -33 -12 -9 -25 -28
-31 -42 -11 -30 -49 -45 -57 -24 -3 8 -1 20 5 27 75 93 86 101 98 72z m-128
-203 c-15 -5 -22 6 -14 19 6 9 10 9 16 -1 5 -8 4 -15 -2 -18z m-55 -27 c20 -8
11 -24 -15 -24 -10 0 -19 7 -19 15 0 16 9 19 34 9z m96 -4 c0 -5 -4 -10 -10
-10 -5 0 -10 5 -10 10 0 6 5 10 10 10 6 0 10 -4 10 -10z m-106 -69 c3 -5 -1
-11 -9 -15 -9 -3 -15 0 -15 9 0 16 16 20 24 6z m66 -31 c0 -11 -4 -20 -10 -20
-5 0 -10 9 -10 20 0 11 5 20 10 20 6 0 10 -9 10 -20z m-56 -76 c20 -8 11 -24
-15 -24 -10 0 -19 7 -19 15 0 16 9 19 34 9z m1584 -62 c32 -41 -21 -55 -67
-17 -17 15 -31 31 -31 36 0 15 84 -2 98 -19z m-223 -1168 c0 -25 -4 -29 -32
-32 -32 -3 -33 -2 -33 32 0 37 13 47 45 36 14 -5 20 -16 20 -36z"/>
<path d="M7769 12873 c-12 -32 -9 -55 9 -61 8 -2 12 10 12 42 0 52 -6 58 -21
19z"/>
<path d="M29556 12478 c-108 -188 -198 -345 -199 -349 -1 -4 88 -163 197 -353
l199 -346 402 0 401 0 177 308 c98 169 188 325 201 347 l24 40 -201 348 -201
347 -401 0 -402 0 -197 -342z m1154 10 c96 -167 182 -316 191 -333 l18 -30
-189 -325 -188 -325 -387 0 -388 0 -188 325 -188 325 17 30 c10 16 96 166 192
333 l174 302 381 0 380 0 175 -302z"/>
<path d="M12903 12723 c-22 -8 -14 -43 16 -74 36 -36 45 -36 60 -3 12 28 6 64
-13 76 -12 9 -44 9 -63 1z"/>
<path d="M13083 12473 c-19 -7 -16 -59 7 -103 11 -22 21 -47 21 -57 2 -32 17
40 18 89 2 71 -9 87 -46 71z"/>
<path d="M13101 12249 c-8 -24 -13 -68 -12 -98 1 -29 -2 -58 -7 -65 -5 -6 -15
-34 -21 -62 -11 -45 -10 -57 9 -108 15 -40 20 -68 16 -92 -4 -19 -11 -211 -15
-428 -6 -248 -13 -401 -20 -414 -13 -24 -40 -249 -76 -622 -14 -151 -31 -304
-37 -340 -10 -64 -21 -365 -12 -345 2 6 11 55 18 110 8 55 26 156 39 225 14
69 28 150 31 180 4 30 14 89 21 130 8 41 19 134 25 205 6 72 13 137 16 145 3
8 9 132 14 275 5 165 13 273 21 295 10 26 14 154 15 520 0 267 -2 496 -6 509
-5 21 -7 19 -19 -20z"/>
<path d="M12356 12096 c-7 -27 1 -56 15 -56 5 0 14 11 21 25 8 19 8 28 -2 40
-18 21 -27 19 -34 -9z"/>
<path d="M29162 11019 c-60 -30 -86 -70 -90 -144 -3 -50 0 -65 20 -94 48 -71
112 -96 191 -76 55 14 82 36 108 87 34 67 20 147 -37 200 -56 52 -122 61 -192
27z"/>
<path d="M10998 10993 c6 -2 18 -2 25 0 6 3 1 5 -13 5 -14 0 -19 -2 -12 -5z"/>
<path d="M9826 10783 c-8 -19 -8 -57 0 -78 6 -14 10 -12 25 12 11 15 19 38 19
49 0 26 -36 39 -44 17z"/>
<path d="M9778 10504 c-9 -27 -20 -67 -24 -89 -4 -22 -15 -57 -26 -77 -27 -55
-88 -246 -88 -277 0 -14 5 -42 11 -61 6 -19 14 -73 18 -119 7 -75 11 -87 35
-106 42 -34 29 -82 -37 -140 -29 -25 -58 -45 -65 -45 -15 0 -67 -27 -94 -48
-10 -8 -25 -11 -38 -7 -23 7 -49 -17 -50 -46 0 -19 -53 -62 -88 -73 -12 -4
-32 -26 -43 -48 -18 -35 -20 -52 -14 -113 7 -77 10 -84 40 -101 16 -9 19 -20
17 -52 -2 -25 4 -52 16 -73 16 -29 24 -34 53 -33 19 0 41 2 49 5 9 2 15 -2 15
-11 0 -9 -12 -17 -30 -20 -23 -4 -32 -12 -39 -37 -7 -22 -17 -33 -36 -37 -15
-2 -35 -18 -44 -33 -10 -15 -39 -47 -64 -70 l-47 -42 0 -78 c1 -59 6 -88 22
-118 12 -22 38 -80 58 -130 21 -49 44 -97 50 -105 7 -8 16 -31 20 -50 4 -19
20 -57 36 -83 17 -27 41 -84 54 -127 14 -42 34 -89 45 -103 11 -14 20 -30 20
-35 0 -18 61 -62 85 -62 17 0 32 13 52 41 15 23 46 62 68 86 l40 45 -4 322
c-1 190 2 354 8 401 25 188 32 342 17 384 -10 31 -11 52 -4 86 6 29 6 132 0
288 -5 133 -6 251 -2 262 4 11 11 58 14 105 4 47 14 140 22 207 21 169 22 366
4 422 l-15 43 -17 -48z m-90 -1360 c2 -13 -4 -24 -15 -28 -27 -10 -79 -41 -97
-57 -35 -32 -45 -38 -70 -45 -28 -7 -36 12 -15 33 20 20 -1 33 -56 33 -30 0
-56 4 -60 9 -8 14 29 31 68 31 23 0 37 6 41 16 5 13 9 14 21 4 8 -7 15 -19 15
-26 0 -16 37 -18 72 -5 13 5 30 21 38 35 17 32 53 32 58 0z"/>
<path d="M9264 9036 c-8 -33 5 -74 17 -55 12 19 11 79 -1 79 -5 0 -12 -11 -16
-24z"/>
<path d="M22100 9050 c20 -13 40 -13 40 0 0 6 -12 10 -27 10 -22 0 -25 -2 -13
-10z"/>
<path d="M14229 8845 c-4 -73 4 -417 10 -405 8 16 11 412 4 445 -9 38 -10 35
-14 -40z"/>
<path d="M20852 8501 c-7 -4 -6 -12 2 -23 12 -17 14 -17 30 1 16 17 16 19 -2
24 -11 2 -24 2 -30 -2z"/>
<path d="M20601 8374 c-20 -26 -21 -28 -4 -54 29 -43 60 -80 69 -80 27 -1 55
-43 65 -97 16 -88 16 -88 37 -69 10 9 28 16 39 16 11 0 40 16 64 35 42 33 48
35 119 34 41 -1 99 -4 129 -7 51 -7 55 -9 66 -42 12 -34 13 -35 64 -35 43 1
56 5 70 24 23 30 81 27 96 -6 5 -12 19 -24 31 -27 12 -3 29 -9 37 -12 23 -8
41 30 27 57 -8 14 -8 24 -1 33 15 18 -5 73 -30 81 -10 4 -28 3 -39 0 -13 -4
-22 -1 -26 9 -7 17 -39 22 -49 7 -3 -5 2 -16 10 -24 17 -18 20 -37 5 -37 -5 0
-16 -12 -24 -27 l-15 -28 -7 43 c-8 50 -11 53 -43 41 -22 -9 -23 -10 -7 -28
16 -18 15 -19 -16 -24 -20 -3 -39 1 -49 9 -8 8 -19 14 -24 14 -5 0 -40 15 -79
34 -39 19 -83 37 -97 40 -14 3 -42 21 -61 40 -20 19 -49 38 -65 41 -15 4 -38
10 -49 15 -12 5 -43 12 -70 15 -27 4 -61 14 -76 21 -42 21 -74 17 -97 -12z"/>
<path d="M14229 8209 c-3 -57 -11 -96 -22 -113 -26 -39 -24 -224 2 -267 16
-27 20 -28 24 -13 13 44 16 160 9 314 -7 155 -8 160 -13 79z"/>
<path d="M21420 7981 c0 -11 -3 -26 -6 -35 -9 -24 9 -19 29 9 17 23 17 25 -3
35 -17 9 -20 8 -20 -9z"/>
<path d="M9747 7500 c-3 -8 -8 -73 -12 -143 -4 -70 -11 -142 -16 -160 -5 -17
-10 -96 -11 -175 -1 -85 -6 -148 -12 -157 -9 -12 -18 -13 -49 -4 -52 14 -60 5
-82 -88 -20 -87 -35 -110 -79 -121 -23 -6 -33 -16 -40 -41 -6 -21 -6 -35 1
-42 8 -8 7 -19 -3 -37 -19 -38 -63 -178 -74 -234 -11 -58 -16 -67 -44 -77 -37
-15 -71 -97 -68 -166 1 -33 5 -72 8 -86 5 -26 39 -49 71 -49 12 0 13 3 3 15
-16 20 -3 73 20 80 10 3 22 19 25 36 8 35 35 52 69 43 34 -8 73 32 81 82 10
63 22 84 48 84 38 0 76 37 88 85 9 34 17 46 38 53 25 9 33 5 84 -44 42 -40 58
-63 63 -91 6 -34 33 -73 50 -73 12 0 -13 170 -31 213 -5 13 -11 15 -21 7 -10
-9 -13 13 -13 122 -1 73 -5 160 -11 193 -6 33 -15 166 -20 296 -6 155 -15 257
-26 299 -9 35 -19 93 -23 129 -4 36 -10 59 -14 51z"/>
<path d="M19778 7167 c-5 -10 -8 -27 -8 -37 0 -9 -6 -23 -14 -29 -7 -6 -16
-25 -20 -42 -3 -16 -19 -47 -36 -68 -17 -21 -35 -53 -40 -72 -5 -19 -14 -53
-20 -77 -6 -23 -24 -57 -40 -75 -72 -79 -70 -70 -32 -132 20 -34 38 -49 70
-62 23 -9 45 -13 49 -9 4 3 10 48 13 99 5 70 12 105 33 149 19 40 29 80 33
135 8 110 10 126 18 144 4 9 6 34 4 55 -2 29 -5 34 -10 21z"/>
<path d="M9460 6985 c0 -14 7 -25 20 -28 30 -8 32 6 4 30 l-24 21 0 -23z"/>
<path d="M19816 6724 c-3 -9 -6 -45 -6 -80 0 -69 -20 -104 -59 -104 -23 0 -40
-22 -23 -28 7 -2 12 -11 12 -19 0 -12 7 -14 31 -9 17 3 38 6 45 6 8 0 14 9 14
20 0 11 11 27 25 36 20 13 25 24 25 60 0 23 5 46 10 49 18 11 10 26 -10 20
-17 -5 -23 0 -35 29 -17 40 -20 43 -29 20z"/>
<path d="M4673 6699 c-10 -10 -13 -95 -13 -354 l0 -342 26 -24 c22 -20 38 -24
105 -28 l79 -3 0 -464 0 -464 70 0 70 0 1 458 c0 251 3 452 5 445 4 -8 12 -8
32 3 20 10 73 14 213 14 169 0 189 2 210 19 l24 19 -3 294 c-1 161 -5 320 -8
354 l-6 61 -192 6 c-566 19 -601 20 -613 6z m457 -129 c17 -9 41 -47 157 -248
59 -104 67 -148 33 -182 -28 -28 -90 -27 -117 3 -11 12 -42 59 -68 105 l-47
83 -50 -88 c-59 -105 -78 -123 -128 -123 -31 0 -44 6 -65 32 -30 36 -29 76 3
113 23 25 152 241 152 254 0 4 9 20 21 35 22 28 73 36 109 16z m116 -553 c10
-9 -475 -7 -506 3 -14 4 93 7 237 6 144 -1 265 -5 269 -9z m162 -4 c-21 -2
-55 -2 -75 0 -21 2 -4 4 37 4 41 0 58 -2 38 -4z"/>
<path d="M30994 6498 c14 -24 74 -127 133 -230 107 -186 108 -187 111 -146 3
36 -9 61 -105 229 -100 174 -110 189 -136 189 l-28 0 25 -42z"/>
<path d="M5506 6443 c-4 -31 -4 -58 -2 -61 3 -2 466 -4 1028 -3 647 1 1033 -2
1050 -8 14 -5 29 -18 34 -28 4 -10 10 -162 12 -338 2 -179 7 -324 13 -330 5
-5 9 28 9 88 l0 98 30 -16 c31 -16 37 -29 20 -40 -6 -4 -7 1 -3 12 5 14 3 15
-7 6 -16 -14 -5 -33 20 -33 10 0 21 -6 23 -12 3 -7 6 -3 6 10 1 12 -4 22 -10
22 -6 0 -3 7 6 16 14 15 16 48 13 283 -3 259 -4 267 -27 304 -12 21 -42 48
-65 60 l-41 22 -1051 2 -1051 1 -7 -55z"/>
<path d="M14078 6309 c-41 -50 -49 -93 -20 -103 9 -3 23 -9 30 -12 8 -4 12 5
12 31 0 20 5 45 11 56 5 11 9 32 7 47 -3 26 -3 26 -40 -19z"/>
<path d="M6615 6291 c4 -15 -61 -85 -305 -327 -171 -170 -312 -310 -314 -311
-1 -2 -81 74 -177 167 -124 120 -181 169 -198 170 -17 0 -66 -42 -185 -159
-88 -87 -204 -200 -256 -250 l-95 -90 32 -33 32 -32 239 237 c131 130 242 237
248 237 5 0 88 -79 184 -175 l175 -175 336 336 c272 271 340 335 356 330 17
-5 21 0 30 38 9 41 8 45 -11 50 -12 3 -38 6 -59 6 -33 0 -38 -3 -32 -19z"/>
<path d="M19071 6304 c-1 -6 -15 -25 -31 -43 -61 -63 -62 -131 -2 -71 30 30
49 85 39 112 -3 7 -6 8 -6 2z"/>
<path d="M15300 6008 c0 -135 3 -279 6 -320 6 -67 9 -75 25 -71 24 7 25 70 4
215 -8 57 -16 171 -18 255 -5 245 -17 189 -17 -79z"/>
<path d="M14120 6114 c0 -21 8 -47 20 -61 l20 -25 10 27 c13 33 13 38 -2 70
-6 14 -19 25 -30 25 -14 0 -18 -8 -18 -36z"/>
<path d="M9917 6035 c-4 -22 -7 -57 -7 -77 0 -31 4 -38 20 -38 17 0 20 7 20
43 0 24 -4 47 -9 53 -5 5 -11 20 -13 34 -3 20 -5 17 -11 -15z"/>
<path d="M14257 5946 c-8 -21 3 -56 19 -56 18 0 18 44 0 59 -10 9 -15 8 -19
-3z"/>
<path d="M14305 5838 c4 -13 15 -36 25 -53 11 -16 33 -57 50 -90 18 -33 37
-67 44 -75 7 -8 33 -49 59 -90 48 -77 81 -120 91 -120 3 0 6 15 6 33 0 30 -16
64 -95 206 -52 93 -145 211 -167 211 -15 0 -18 -5 -13 -22z"/>
<path d="M9974 5768 c-5 -7 -11 -38 -15 -68 -4 -30 -12 -92 -19 -138 -13 -79
-12 -87 10 -150 13 -37 29 -78 36 -92 7 -14 27 -67 44 -118 31 -97 33 -152 4
-197 -31 -51 -46 -137 -39 -231 6 -79 10 -94 26 -99 24 -8 27 -80 4 -89 -16
-6 -21 -66 -6 -66 5 0 20 21 33 46 13 26 34 54 48 62 56 35 70 54 70 97 0 22
9 57 19 78 30 59 32 82 16 159 -8 40 -19 109 -24 153 -6 44 -26 133 -46 198
-19 65 -35 129 -35 142 0 13 -5 36 -11 52 -6 15 -17 48 -24 73 -42 142 -76
213 -91 188z m86 -1070 c0 -16 -3 -19 -11 -11 -6 6 -8 16 -5 22 11 17 16 13
16 -11z"/>
<path d="M21827 5743 c-11 -10 -8 -53 3 -53 6 0 10 14 10 30 0 31 -2 35 -13
23z"/>
<path d="M21791 5634 c0 -11 3 -14 6 -6 3 7 2 16 -1 19 -3 4 -6 -2 -5 -13z"/>
<path d="M7210 5381 c-86 -28 -168 -98 -211 -181 -21 -39 -24 -59 -24 -150 0
-99 2 -109 32 -166 40 -76 106 -142 181 -180 51 -26 67 -29 157 -29 88 0 106
4 150 27 111 57 187 180 189 303 1 58 -20 155 -33 155 -3 0 -33 -14 -66 -30
-33 -16 -66 -30 -73 -30 -9 0 -11 -14 -6 -54 12 -101 -56 -188 -159 -202 -38
-6 -56 -2 -99 19 -133 66 -155 237 -43 323 67 51 187 40 245 -21 l23 -25 56
29 c31 16 64 31 74 35 25 8 22 18 -24 69 -25 29 -65 59 -107 79 -57 29 -78 33
-152 35 -47 1 -96 -1 -110 -6z m191 -37 c54 -16 149 -77 149 -95 0 -6 -15 1
-32 14 -69 52 -120 70 -208 76 -62 3 -77 7 -55 12 51 11 89 10 146 -7z"/>
<path d="M14621 5356 c-7 -8 -9 -26 -5 -43 7 -28 93 -152 106 -153 4 0 10 11
14 25 5 18 -1 35 -20 59 -14 19 -26 37 -26 40 0 4 -46 75 -54 83 -2 2 -8 -3
-15 -11z"/>
<path d="M26897 4786 c-16 -7 -42 -25 -59 -41 -89 -84 -57 -231 61 -281 45
-19 78 -17 127 5 135 61 135 251 0 312 -47 21 -89 23 -129 5z"/>
<path d="M9900 4700 c0 -11 5 -20 10 -20 6 0 10 9 10 20 0 11 -4 20 -10 20 -5
0 -10 -9 -10 -20z"/>
<path d="M9978 4448 c-3 -7 -2 -24 2 -38 4 -19 12 -25 35 -25 38 0 41 14 10
48 -28 30 -41 34 -47 15z"/>
<path d="M12650 4409 c-41 -17 -70 -50 -70 -82 0 -54 103 -127 153 -108 41 16
61 113 37 175 -8 23 -15 26 -52 25 -24 0 -54 -5 -68 -10z"/>
<path d="M28323 4408 c-19 -24 -466 -801 -470 -818 -2 -9 102 -201 235 -431
l238 -414 489 0 489 0 241 418 242 419 -241 419 -241 418 -486 1 c-378 0 -489
-3 -496 -12z m1162 -439 c121 -210 219 -387 217 -393 -2 -6 -101 -181 -220
-388 l-217 -378 -450 1 -450 0 -221 386 -222 385 142 247 c78 135 178 308 222
383 l79 138 450 0 450 0 220 -381z"/>
<path d="M6250 4282 c-595 -2 -680 -4 -680 -17 0 -13 91 -15 746 -15 592 0
745 3 742 13 -7 20 -94 22 -808 19z"/>
<path d="M13643 4113 c-7 -2 -13 -11 -13 -20 0 -20 34 -12 38 10 3 17 -3 20
-25 10z"/>
<path d="M13630 4025 c-13 -35 3 -195 21 -206 10 -6 15 -1 16 19 2 15 8 56 13
92 12 72 2 120 -25 120 -9 0 -20 -11 -25 -25z"/>
<path d="M12643 3967 c-25 -14 -70 -70 -84 -104 -5 -13 -17 -23 -29 -23 -11 0
-20 -4 -20 -9 0 -4 11 -6 24 -4 16 3 34 -4 57 -25 26 -23 39 -28 56 -21 32 12
43 40 43 106 0 72 -15 98 -47 80z"/>
<path d="M13284 3947 c-3 -8 -4 -36 -2 -63 2 -36 7 -49 18 -49 20 0 22 116 3
122 -7 3 -16 -2 -19 -10z"/>
<path d="M30674 3784 l-67 -115 23 -42 c40 -72 46 -79 57 -65 5 7 36 59 69
116 l59 102 212 0 213 0 0 60 0 60 -249 0 -249 0 -68 -116z"/>
<path d="M12463 3786 c-7 -8 -18 -16 -25 -19 -22 -8 0 -20 25 -13 14 3 27 15
30 26 6 23 -12 26 -30 6z"/>
<path d="M30257 3062 c-175 -302 -317 -552 -317 -555 0 -4 31 -7 68 -7 l68 0
283 493 c157 270 286 495 288 499 4 8 -59 118 -68 118 -3 0 -148 -247 -322
-548z"/>
<path d="M15265 3406 c-4 -46 -4 -99 1 -117 7 -33 8 -32 20 31 10 48 10 79 3
118 -6 28 -12 52 -14 52 -2 0 -6 -38 -10 -84z"/>
<path d="M13654 3418 c-5 -7 -12 -47 -15 -88 -3 -41 -12 -90 -20 -107 -11 -27
-11 -40 0 -75 18 -58 30 -221 18 -229 -6 -5 -6 -19 2 -39 6 -18 11 -46 11 -61
0 -32 15 -46 24 -23 12 30 6 83 -11 99 -10 10 -12 19 -6 23 19 13 33 97 23
133 -15 51 -12 155 5 196 18 42 19 88 4 134 -15 44 -25 54 -35 37z"/>
<path d="M16125 2710 c3 -5 8 -10 11 -10 2 0 4 5 4 10 0 6 -5 10 -11 10 -5 0
-7 -4 -4 -10z"/>
<path d="M21905 2661 c-77 -35 -115 -106 -101 -189 13 -85 119 -158 199 -138
72 18 137 95 137 162 0 78 -32 129 -102 165 -46 24 -82 24 -133 0z"/>
<path d="M23423 2493 c1 -10 -200 -368 -447 -795 l-449 -778 -739 0 c-406 0
-738 -3 -738 -6 0 -4 14 -31 31 -60 l31 -54 746 2 746 3 483 835 c265 459 482
842 480 850 -2 11 -20 16 -75 18 -64 3 -72 1 -69 -15z"/>
<path d="M29843 2346 l-71 -124 340 -588 c187 -324 343 -592 347 -596 7 -8 71
95 71 113 0 5 -133 240 -296 521 -163 282 -301 522 -306 534 -9 18 1 42 61
143 l70 121 -72 0 -73 0 -71 -124z"/>
<path d="M24319 2198 c-418 -721 -832 -1443 -833 -1453 0 -6 91 -172 204 -368
146 -253 210 -357 223 -357 9 0 17 2 17 5 0 3 -93 165 -206 361 -113 195 -204
359 -202 363 2 4 210 366 463 804 l460 797 925 0 925 0 154 -268 c406 -702
601 -1040 683 -1184 l90 -157 -206 -355 c-113 -195 -206 -358 -206 -361 0 -3
8 -5 18 -5 12 1 78 107 225 362 l208 361 -192 331 c-105 182 -318 550 -473
819 l-281 487 -945 0 -945 0 -106 -182z"/>
<path d="M16093 2257 c-50 -26 -54 -37 -12 -37 38 0 98 45 73 54 -9 3 -16 6
-17 5 -1 0 -21 -10 -44 -22z"/>
<path d="M13030 2230 c0 -5 5 -10 10 -10 6 0 10 5 10 10 0 6 -4 10 -10 10 -5
0 -10 -4 -10 -10z"/>
<path d="M30521 1056 c-17 -31 -31 -60 -31 -66 0 -8 192 -348 244 -433 10 -15
33 -17 258 -17 l248 0 0 60 0 60 -209 0 c-155 0 -211 3 -219 13 -5 6 -62 104
-127 217 -64 113 -120 209 -125 213 -4 5 -21 -17 -39 -47z"/>
<path d="M28830 548 c-108 -58 -130 -194 -44 -274 64 -61 142 -68 215 -19 49
32 73 77 73 140 0 63 -24 108 -74 141 -57 38 -114 42 -170 12z"/>
</g>
</svg>
